<svg id="Layer_1" data-name="Layer 1" xmlns="http://www.w3.org/2000/svg" viewBox="0 0 93.5 33.91"><path d="M17.55,8.83v.33a1.53,1.53,0,0,1-.41,1.11,1.69,1.69,0,0,1-2.23,0,1.53,1.53,0,0,1-.41-1.11V5.77a1.53,1.53,0,0,1,.41-1.11,1.69,1.69,0,0,1,2.23,0,1.53,1.53,0,0,1,.41,1.11V6.1H16.44V5.77a.41.41,0,0,0-.11-.3A.4.4,0,0,0,16,5.35a.38.38,0,0,0-.3.12.41.41,0,0,0-.11.3V9.16a.41.41,0,0,0,.11.3.38.38,0,0,0,.3.12.4.4,0,0,0,.31-.12.41.41,0,0,0,.11-.3V8.83Z"/><path d="M19.87,10.69a1.51,1.51,0,0,1-1.12-.42,1.53,1.53,0,0,1-.41-1.11V5.77a1.53,1.53,0,0,1,.41-1.11,1.69,1.69,0,0,1,2.23,0,1.53,1.53,0,0,1,.41,1.11V9.16A1.53,1.53,0,0,1,21,10.27,1.5,1.5,0,0,1,19.87,10.69Zm0-1.11a.38.38,0,0,0,.3-.12.41.41,0,0,0,.11-.3V5.77a.41.41,0,0,0-.11-.3.38.38,0,0,0-.3-.12.39.39,0,0,0-.31.12.41.41,0,0,0-.11.3V9.16a.41.41,0,0,0,.11.3A.39.39,0,0,0,19.87,9.58Z"/><path d="M22.51,10.56V4.37h.82l1.41,4h-.3v-4h1v6.19h-.82l-1.41-4h.3v4Z"/><path d="M27.07,10.56V5.48h-.91V4.37h2.93V5.48h-.91v5.08Z"/><path d="M32.33,4.37V5.48H30.88V6.72H32.1V7.83H30.88V9.44h1.45v1.12H29.77V4.37Z"/><path d="M33.29,10.56V4.37h.83l1.41,4h-.3v-4h1v6.19h-.82L34,6.55h.29v4Z"/><path d="M37.85,10.56V5.48H37V4.37h2.92V5.48H39v5.08Z"/><path d="M42.54,10.56V4.37h1.52a1.51,1.51,0,0,1,1.12.42,1.53,1.53,0,0,1,.41,1.11V9a1.53,1.53,0,0,1-.41,1.11,1.51,1.51,0,0,1-1.12.42Zm1.11-1.12h.41a.42.42,0,0,0,.31-.11.44.44,0,0,0,.11-.3V5.9a.41.41,0,0,0-.11-.3.39.39,0,0,0-.31-.12h-.41Z"/><path d="M49.23,4.37V5.48H47.78V6.72H49V7.83H47.78V9.44h1.45v1.12H46.67V4.37Z"/><path d="M50.88,10.56,49.71,4.37h1.14L51.56,9h-.15l.69-4.61h1.13l-1.14,6.19Z"/><path d="M56.52,4.37V5.48H55.07V6.72h1.22V7.83H55.07V9.44h1.45v1.12H54V4.37Z"/><path d="M58.59,4.37V9.44h1.28v1.12H57.48V4.37Z"/><path d="M62,10.69a1.5,1.5,0,0,1-1.11-.42,1.53,1.53,0,0,1-.41-1.11V5.77a1.53,1.53,0,0,1,.41-1.11,1.69,1.69,0,0,1,2.23,0,1.53,1.53,0,0,1,.41,1.11V9.16a1.53,1.53,0,0,1-.41,1.11A1.51,1.51,0,0,1,62,10.69Zm0-1.11a.4.4,0,0,0,.31-.12.41.41,0,0,0,.11-.3V5.77a.41.41,0,0,0-.11-.3A.4.4,0,0,0,62,5.35a.38.38,0,0,0-.3.12.41.41,0,0,0-.11.3V9.16a.41.41,0,0,0,.11.3A.38.38,0,0,0,62,9.58Z"/><path d="M64.67,10.56V4.37H66.2A1.43,1.43,0,0,1,67.72,5.9v.82A1.43,1.43,0,0,1,66.2,8.25h-.41v2.31Zm1.12-3.43h.41A.37.37,0,0,0,66.5,7a.42.42,0,0,0,.11-.3V5.9a.41.41,0,0,0-.11-.3.38.38,0,0,0-.3-.12h-.41Z"/><path d="M71.1,4.37V5.48H69.66V6.72h1.22V7.83H69.66V9.44H71.1v1.12H68.55V4.37Z"/><path d="M72.07,10.56V4.37h1.52a1.51,1.51,0,0,1,1.12.42,1.53,1.53,0,0,1,.41,1.11v1a1.74,1.74,0,0,1-.17.77,1.44,1.44,0,0,1-.5.54l-.08-.37a1.36,1.36,0,0,1,.56.38,1,1,0,0,1,.19.61v1.74H74V8.82a.4.4,0,0,0-.11-.29.39.39,0,0,0-.31-.12h-.41v2.15ZM73.18,7.3h.41a.42.42,0,0,0,.31-.11.44.44,0,0,0,.11-.3v-1a.41.41,0,0,0-.11-.3.39.39,0,0,0-.31-.12h-.41Z"/><path d="M77.55,10.69a1.5,1.5,0,0,1-1.11-.42A1.53,1.53,0,0,1,76,9.16V8.83h1.11v.33a.41.41,0,0,0,.11.3.38.38,0,0,0,.3.12.39.39,0,0,0,.31-.12.41.41,0,0,0,.11-.3V8.53c0-.07,0-.13,0-.17a.16.16,0,0,0,0-.1.22.22,0,0,0-.12-.07l-.24-.07-.88-.3a1.3,1.3,0,0,1-.45-.26.57.57,0,0,1-.16-.37,4.75,4.75,0,0,1,0-.6V5.77a1.53,1.53,0,0,1,.41-1.11,1.69,1.69,0,0,1,2.23,0,1.53,1.53,0,0,1,.41,1.11V6.1H78V5.77a.41.41,0,0,0-.11-.3.39.39,0,0,0-.31-.12.38.38,0,0,0-.3.12.41.41,0,0,0-.11.3v.82a.81.81,0,0,0,0,.17.18.18,0,0,0,0,.1l.12.07.24.07c.39.12.68.22.89.3a1.3,1.3,0,0,1,.45.26.6.6,0,0,1,.16.36,4.82,4.82,0,0,1,0,.61v.63a1.53,1.53,0,0,1-.41,1.11A1.51,1.51,0,0,1,77.55,10.69Z"/><path d="M16.57,18.91a1.47,1.47,0,0,1-1.09-.42,1.53,1.53,0,0,1-.41-1.1v-.33a1.74,1.74,0,0,1,.2-.84,1.33,1.33,0,0,1,.55-.53l-.75-1.37V14a1.53,1.53,0,0,1,.41-1.11,1.51,1.51,0,0,1,1.12-.42,1.49,1.49,0,0,1,1.11.42A1.53,1.53,0,0,1,18.12,14v.33H17V14a.44.44,0,0,0-.11-.3.37.37,0,0,0-.3-.11.38.38,0,0,0-.31.11.44.44,0,0,0-.11.3v.33l1,1.77.17-1.28h.95l-.35,2.67.59,1.05v.25h-1l-.1-.18a1.16,1.16,0,0,1-.36.23A1.23,1.23,0,0,1,16.57,18.91Zm0-1.11a.37.37,0,0,0,.31-.13l-.54-1a.39.39,0,0,0-.19.37v.33a.44.44,0,0,0,.11.3A.42.42,0,0,0,16.6,17.8Z"/><path d="M24.39,17.06v.33a1.53,1.53,0,0,1-.41,1.1,1.69,1.69,0,0,1-2.23,0,1.53,1.53,0,0,1-.41-1.1V14a1.53,1.53,0,0,1,.41-1.11,1.69,1.69,0,0,1,2.23,0A1.53,1.53,0,0,1,24.39,14v.33H23.28V14a.44.44,0,0,0-.11-.3.38.38,0,0,0-.31-.11.37.37,0,0,0-.3.11.44.44,0,0,0-.11.3v3.4a.44.44,0,0,0,.11.3.41.41,0,0,0,.3.11.42.42,0,0,0,.31-.11.44.44,0,0,0,.11-.3v-.33Z"/><path d="M25.27,18.78V12.6H26.8a1.41,1.41,0,0,1,1.52,1.52v1a1.59,1.59,0,0,1-.17.77,1.49,1.49,0,0,1-.49.54l-.09-.36a1.21,1.21,0,0,1,.56.38,1,1,0,0,1,.19.61v1.73H27.21V17.05a.44.44,0,0,0-.11-.3.37.37,0,0,0-.3-.11h-.41v2.14Zm1.12-3.26h.41a.37.37,0,0,0,.3-.11.41.41,0,0,0,.11-.3v-1a.44.44,0,0,0-.11-.3.41.41,0,0,0-.3-.11h-.41Z"/><path d="M32,12.6v1.11H30.54V15h1.22v1.11H30.54v1.61H32v1.11H29.43V12.6Z"/><path d="M32.47,18.78l1.17-6.18h1.21L36,18.78H34.86l-.14-1h-1l-.15,1Zm1.45-2.08h.63l-.38-2.6h.15Z"/><path d="M36.94,18.78V13.71H36V12.6H39v1.11h-.91v5.07Z"/><path d="M41.08,18.91a1.43,1.43,0,0,1-1.52-1.52V14a1.43,1.43,0,0,1,1.52-1.53,1.47,1.47,0,0,1,1.11.42A1.5,1.5,0,0,1,42.61,14v3.4a1.49,1.49,0,0,1-.42,1.1A1.47,1.47,0,0,1,41.08,18.91Zm0-1.11a.37.37,0,0,0,.41-.41V14a.44.44,0,0,0-.1-.3.39.39,0,0,0-.31-.11.37.37,0,0,0-.3.11.44.44,0,0,0-.11.3v3.4a.44.44,0,0,0,.11.3A.41.41,0,0,0,41.08,17.8Z"/><path d="M43.72,18.78V12.6h1.53a1.41,1.41,0,0,1,1.52,1.52v1a1.71,1.71,0,0,1-.17.77,1.44,1.44,0,0,1-.5.54L46,16.06a1.21,1.21,0,0,1,.56.38,1,1,0,0,1,.19.61v1.73H45.66V17.05a.44.44,0,0,0-.11-.3.37.37,0,0,0-.3-.11h-.42v2.14Zm1.11-3.26h.42a.37.37,0,0,0,.3-.11.41.41,0,0,0,.11-.3v-1a.44.44,0,0,0-.11-.3.41.41,0,0,0-.3-.11h-.42Z"/><path d="M49.2,18.91a1.5,1.5,0,0,1-1.11-.42,1.53,1.53,0,0,1-.41-1.1v-.33h1.11v.33a.44.44,0,0,0,.11.3.41.41,0,0,0,.3.11.42.42,0,0,0,.31-.11.44.44,0,0,0,.11-.3v-.64c0-.07,0-.13,0-.17a.3.3,0,0,0,0-.1l-.12-.06-.25-.08c-.38-.11-.67-.21-.88-.29a1.29,1.29,0,0,1-.45-.27.55.55,0,0,1-.16-.36,4.82,4.82,0,0,1,0-.61V14a1.53,1.53,0,0,1,.41-1.11,1.69,1.69,0,0,1,2.23,0A1.53,1.53,0,0,1,50.73,14v.33H49.62V14a.44.44,0,0,0-.11-.3.38.38,0,0,0-.31-.11.37.37,0,0,0-.3.11.44.44,0,0,0-.11.3v.82c0,.08,0,.13,0,.17a.23.23,0,0,0,0,.1.32.32,0,0,0,.13.07l.23.08c.39.11.68.21.89.29a1.3,1.3,0,0,1,.45.26.6.6,0,0,1,.16.37,4.75,4.75,0,0,1,0,.6v.64a1.53,1.53,0,0,1-.41,1.1A1.51,1.51,0,0,1,49.2,18.91Z"/><path d="M56.65,17.06v.33a1.53,1.53,0,0,1-.41,1.1,1.69,1.69,0,0,1-2.23,0,1.53,1.53,0,0,1-.41-1.1V14A1.53,1.53,0,0,1,54,12.88a1.69,1.69,0,0,1,2.23,0A1.53,1.53,0,0,1,56.65,14v.33H55.54V14a.44.44,0,0,0-.11-.3.37.37,0,0,0-.3-.11.38.38,0,0,0-.31.11.44.44,0,0,0-.11.3v3.4a.44.44,0,0,0,.11.3.42.42,0,0,0,.31.11.41.41,0,0,0,.3-.11.44.44,0,0,0,.11-.3v-.33Z"/><path d="M59,18.91a1.47,1.47,0,0,1-1.11-.42,1.49,1.49,0,0,1-.42-1.1V14a1.5,1.5,0,0,1,.42-1.11,1.68,1.68,0,0,1,2.22,0A1.49,1.49,0,0,1,60.49,14v3.4a1.49,1.49,0,0,1-.41,1.1A1.47,1.47,0,0,1,59,18.91Zm0-1.11a.41.41,0,0,0,.3-.11.4.4,0,0,0,.11-.3V14a.4.4,0,0,0-.11-.3.37.37,0,0,0-.3-.11.39.39,0,0,0-.31.11.44.44,0,0,0-.1.3v3.4a.37.37,0,0,0,.41.41Z"/><path d="M64.62,12.6v4.79a1.53,1.53,0,0,1-.41,1.1,1.69,1.69,0,0,1-2.23,0,1.53,1.53,0,0,1-.41-1.1V12.6h1.11v4.79a.44.44,0,0,0,.11.3.41.41,0,0,0,.3.11.42.42,0,0,0,.31-.11.44.44,0,0,0,.11-.3V12.6Z"/><path d="M65.78,18.78V12.6h.83l1.41,4h-.3v-4h1v6.18h-.82l-1.41-4h.29v4Z"/><path d="M72.92,17.06v.33a1.49,1.49,0,0,1-.42,1.1,1.68,1.68,0,0,1-2.22,0,1.49,1.49,0,0,1-.42-1.1V14a1.5,1.5,0,0,1,.42-1.11,1.68,1.68,0,0,1,2.22,0A1.5,1.5,0,0,1,72.92,14v.33H71.8V14a.4.4,0,0,0-.11-.3.37.37,0,0,0-.3-.11.41.41,0,0,0-.31.11.44.44,0,0,0-.1.3v3.4a.44.44,0,0,0,.1.3.45.45,0,0,0,.31.11.41.41,0,0,0,.3-.11.4.4,0,0,0,.11-.3v-.33Z"/><path d="M74.91,18.78H73.8V12.6h1.11Z"/><path d="M77.23,12.6v5.07h1.28v1.11H76.12V12.6Z"/><path d="M11.69,29.6V26h.89a.74.74,0,0,1,.57.22.85.85,0,0,1,.22.6v.29a.84.84,0,0,1-.09.4.66.66,0,0,1-.23.29v-.13a.66.66,0,0,1,.27.28.89.89,0,0,1,.1.44v.4a.84.84,0,0,1-.21.59.75.75,0,0,1-.57.23Zm.36-2h.53a.39.39,0,0,0,.31-.13A.44.44,0,0,0,13,27.1v-.29a.44.44,0,0,0-.11-.33.39.39,0,0,0-.31-.13h-.53Zm0,1.68h.58a.42.42,0,0,0,.31-.13.49.49,0,0,0,.11-.33v-.4a.49.49,0,0,0-.11-.33.39.39,0,0,0-.31-.13h-.58Z"/><path d="M16.89,29.67a.83.83,0,0,1-.62-.24.9.9,0,0,1-.24-.65v-2a.86.86,0,0,1,.24-.64.8.8,0,0,1,.62-.25.79.79,0,0,1,.62.25.86.86,0,0,1,.24.64v2a.9.9,0,0,1-.24.65A.81.81,0,0,1,16.89,29.67Zm0-.36a.49.49,0,0,0,.36-.14.56.56,0,0,0,.14-.39v-2a.52.52,0,0,0-.14-.38.51.51,0,0,0-.72,0,.52.52,0,0,0-.14.38v2a.56.56,0,0,0,.14.39A.49.49,0,0,0,16.89,29.31Z"/><path d="M21.28,29.67a.83.83,0,0,1-.62-.24.9.9,0,0,1-.24-.65v-2a.86.86,0,0,1,.24-.64.8.8,0,0,1,.62-.25.79.79,0,0,1,.62.25.86.86,0,0,1,.24.64v2a.9.9,0,0,1-.24.65A.81.81,0,0,1,21.28,29.67Zm0-.36a.49.49,0,0,0,.36-.14.56.56,0,0,0,.14-.39v-2a.52.52,0,0,0-.14-.38.51.51,0,0,0-.72,0,.52.52,0,0,0-.13.38v2a.56.56,0,0,0,.13.39A.49.49,0,0,0,21.28,29.31Z"/><path d="M24.87,29.6V26h.36V29.6Zm1.44,0-.88-1.89-.25.36v-.6l1-1.48h.39l-.94,1.36,1,2.25Z"/><path d="M29.88,29.67a.84.84,0,0,1-.62-.24.94.94,0,0,1-.23-.65v-.12h.36v.12a.56.56,0,0,0,.14.39.48.48,0,0,0,.35.14.49.49,0,0,0,.36-.14.56.56,0,0,0,.14-.39v-.27a1.34,1.34,0,0,0,0-.21.22.22,0,0,0-.05-.12.49.49,0,0,0-.15-.09L29.88,28a3.77,3.77,0,0,1-.49-.17,1,1,0,0,1-.26-.15.34.34,0,0,1-.09-.21,3.44,3.44,0,0,1,0-.35v-.3a.9.9,0,0,1,.23-.64.91.91,0,0,1,1.25,0,.85.85,0,0,1,.23.64v.12h-.36V26.8a.52.52,0,0,0-.14-.38.46.46,0,0,0-.36-.15.45.45,0,0,0-.35.15.52.52,0,0,0-.14.38v.3a1.34,1.34,0,0,0,0,.21.22.22,0,0,0,.05.12.49.49,0,0,0,.15.09l.28.1a5,5,0,0,1,.5.18.85.85,0,0,1,.26.15.34.34,0,0,1,.09.21,3.33,3.33,0,0,1,0,.35v.27a.89.89,0,0,1-.23.65A.84.84,0,0,1,29.88,29.67Z"/><path d="M37.16,29.66a.81.81,0,0,1-.62-.25.9.9,0,0,1-.23-.64v-.35a1,1,0,0,1,.1-.46.66.66,0,0,1,.27-.3L36.31,27v-.21a.94.94,0,0,1,.23-.65.85.85,0,0,1,.63-.24.83.83,0,0,1,.62.24.88.88,0,0,1,.23.65v.12h-.36v-.12a.56.56,0,0,0-.13-.39.53.53,0,0,0-.72,0,.56.56,0,0,0-.14.39V27l1,1.7.21-1.08h.3l-.27,1.48.24.41v.06h-.34l-.1-.17a.76.76,0,0,1-.23.17A.81.81,0,0,1,37.16,29.66Zm0-.36a.47.47,0,0,0,.38-.17L36.87,28a.52.52,0,0,0-.2.44v.35a.52.52,0,0,0,.14.38A.46.46,0,0,0,37.17,29.3Z"/><path d="M43.84,29.6V26h.89a.74.74,0,0,1,.57.22.85.85,0,0,1,.22.6v.39a.84.84,0,0,1-.22.59.75.75,0,0,1-.57.23H44.2V29.6Zm.36-2h.53a.41.41,0,0,0,.31-.12.47.47,0,0,0,.11-.33v-.39a.44.44,0,0,0-.11-.33.39.39,0,0,0-.31-.13H44.2Z"/><path d="M49.76,26v2.79a.9.9,0,0,1-.24.65.83.83,0,0,1-.62.24.81.81,0,0,1-.62-.24.9.9,0,0,1-.24-.65V26h.36v2.79a.56.56,0,0,0,.14.39.53.53,0,0,0,.72,0,.56.56,0,0,0,.13-.39V26Z"/><path d="M52.51,29.6V26h.9a.77.77,0,0,1,.57.22.84.84,0,0,1,.21.6v.29a1,1,0,0,1-.08.4.76.76,0,0,1-.24.29v-.13a.73.73,0,0,1,.27.28.89.89,0,0,1,.1.44v.4a.84.84,0,0,1-.21.59.78.78,0,0,1-.58.23Zm.37-2h.53a.37.37,0,0,0,.3-.13.45.45,0,0,0,.12-.33v-.29a.45.45,0,0,0-.12-.33.37.37,0,0,0-.3-.13h-.53Zm0,1.68h.57a.42.42,0,0,0,.31-.13.45.45,0,0,0,.12-.33v-.4a.45.45,0,0,0-.12-.33.39.39,0,0,0-.31-.13h-.57Z"/><path d="M57.27,26v3.25h1v.36H56.91V26Z"/><path d="M61.09,29.6h-.36V26h.36Z"/><path d="M64.59,29.67a.81.81,0,0,1-.62-.24.9.9,0,0,1-.24-.65v-.12h.37v.12a.56.56,0,0,0,.13.39.53.53,0,0,0,.72,0,.56.56,0,0,0,.13-.39V28.3a.23.23,0,0,0-.06-.12.33.33,0,0,0-.14-.09L64.59,28a4.7,4.7,0,0,1-.5-.17.78.78,0,0,1-.25-.15.34.34,0,0,1-.09-.21,3,3,0,0,1,0-.35v-.3a.86.86,0,0,1,.24-.64.79.79,0,0,1,.62-.25.82.82,0,0,1,.63.25.9.9,0,0,1,.23.64v.12h-.37V26.8a.52.52,0,0,0-.13-.38.51.51,0,0,0-.72,0,.52.52,0,0,0-.13.38v.51a.23.23,0,0,0,.06.12.42.42,0,0,0,.14.09l.29.1.5.18a.78.78,0,0,1,.25.15.34.34,0,0,1,.09.21,2.87,2.87,0,0,1,0,.35v.27a.94.94,0,0,1-.23.65A.85.85,0,0,1,64.59,29.67Z"/><path d="M68.08,29.6V26h.37v1.84h.93V26h.36V29.6h-.36V28.19h-.93V29.6Z"/><path d="M72.88,29.6h-.36V26h.36Z"/><path d="M75.67,29.6V26H76l1.13,2.94H77V26h.35V29.6h-.32l-1.14-2.94H76v3Z"/><path d="M81,29.67a.85.85,0,0,1-.63-.24.94.94,0,0,1-.23-.65v-2a.9.9,0,0,1,.23-.64.91.91,0,0,1,1.25,0,.9.9,0,0,1,.23.64v.12h-.36V26.8a.52.52,0,0,0-.13-.38.48.48,0,0,0-.36-.15.46.46,0,0,0-.36.15.52.52,0,0,0-.14.38v2a.56.56,0,0,0,.14.39.49.49,0,0,0,.36.14.51.51,0,0,0,.36-.14.56.56,0,0,0,.13-.39v-.55H81v-.37h.84v.92a.94.94,0,0,1-.23.65A.84.84,0,0,1,81,29.67Z"/></svg>