<svg id="Layer_1" data-name="Layer 1" xmlns="http://www.w3.org/2000/svg" viewBox="0 0 95.13 95.3"><defs><style>.cls-1{fill:#2b2b2b;}</style></defs><path class="cls-1" d="M19.41,69.66,23.74,66l.9,1.06a1.38,1.38,0,0,1,.37,1,1.36,1.36,0,0,1-.53.94l-.46.39a1.45,1.45,0,0,1-.53.31,1.25,1.25,0,0,1-.54.06l.29-.28a1.24,1.24,0,0,1-.11.59,1.59,1.59,0,0,1-.42.53l-.37.32a1.42,1.42,0,0,1-1,.37,1.38,1.38,0,0,1-.95-.53Zm1.44.12.3.35a.33.33,0,0,0,.26.14.38.38,0,0,0,.27-.1l.37-.32a.37.37,0,0,0,.15-.25.4.4,0,0,0-.1-.28L21.8,69Zm1.73-1.47.25.29a.37.37,0,0,0,.26.15.43.43,0,0,0,.27-.1l.46-.4A.34.34,0,0,0,24,68a.33.33,0,0,0-.1-.28l-.24-.29Z"/><path class="cls-1" d="M23.11,73.82a1.31,1.31,0,0,1-.07-2l2.12-2.28a1.32,1.32,0,0,1,2-.07,1.32,1.32,0,0,1,.07,2l-2.13,2.27a1.29,1.29,0,0,1-2,.07Zm.69-.74a.36.36,0,0,0,.28.11.38.38,0,0,0,.26-.13l2.12-2.28a.37.37,0,0,0,.12-.27.36.36,0,0,0-.14-.26.37.37,0,0,0-.27-.12.38.38,0,0,0-.26.14l-2.12,2.27a.41.41,0,0,0-.12.27A.4.4,0,0,0,23.8,73.08Z"/><path class="cls-1" d="M26.34,76.5a1.35,1.35,0,0,1-.59-.91,1.36,1.36,0,0,1,.29-1L27.89,72a1.38,1.38,0,0,1,.9-.6,1.41,1.41,0,0,1,1.05.3,1.39,1.39,0,0,1,.6.91,1.37,1.37,0,0,1-.3,1L28.3,76.2a1.4,1.4,0,0,1-.91.6A1.37,1.37,0,0,1,26.34,76.5Zm.6-.82a.37.37,0,0,0,.29.08.38.38,0,0,0,.24-.16l1.85-2.51a.42.42,0,0,0,.08-.28.39.39,0,0,0-.16-.25.37.37,0,0,0-.29-.08.41.41,0,0,0-.24.16l-1.85,2.51a.43.43,0,0,0-.08.28A.39.39,0,0,0,26.94,75.68Z"/><path class="cls-1" d="M28.77,78l2.8-4.93.88.5-2.8,4.93Zm1.74,1L31,76.34l-.31.16.82-1.45,1.83-.93,1,.54-2.17,1.11-.7,3.79Z"/><path class="cls-1" d="M33.55,80.61a1.42,1.42,0,0,1-.79-.75,1.41,1.41,0,0,1,.05-1.08l.12-.28.94.4-.12.28a.42.42,0,0,0,0,.29.45.45,0,0,0,.52.22.44.44,0,0,0,.2-.22l.22-.53a.77.77,0,0,0,.06-.15.17.17,0,0,0,0-.1.58.58,0,0,0-.08-.1l-.18-.15c-.28-.23-.49-.42-.64-.57a1,1,0,0,1-.28-.38.49.49,0,0,1,0-.36,4.4,4.4,0,0,1,.19-.52l.3-.7a1.32,1.32,0,0,1,1.83-.74,1.36,1.36,0,0,1,.79.75,1.39,1.39,0,0,1,0,1.09l-.12.27-.93-.4.11-.27a.37.37,0,0,0,0-.29.35.35,0,0,0-.22-.21.33.33,0,0,0-.29,0,.35.35,0,0,0-.2.21l-.3.7c0,.06,0,.1-.05.14a.17.17,0,0,0,0,.1.31.31,0,0,0,.08.1l.17.15c.28.24.5.43.64.57a1.09,1.09,0,0,1,.29.38.66.66,0,0,1,0,.37c0,.13-.11.3-.2.52l-.23.53a1.3,1.3,0,0,1-1.83.74Z"/><path class="cls-1" d="M39.31,82.5a1.29,1.29,0,0,1-.88-.6,1.4,1.4,0,0,1-.15-1.07l.07-.3a1.65,1.65,0,0,1,.35-.7,1.18,1.18,0,0,1,.61-.37l-.39-1.37.07-.3a1.33,1.33,0,0,1,.6-.9,1.52,1.52,0,0,1,2,.46,1.34,1.34,0,0,1,.14,1.07l-.07.3-1-.23.07-.3a.41.41,0,0,0,0-.29.38.38,0,0,0-.25-.16.32.32,0,0,0-.29,0A.38.38,0,0,0,40,78l-.07.3.52,1.78.41-1.1.85.19-.86,2.31.31,1.07,0,.22-.91-.21,0-.19a1,1,0,0,1-.37.14A1.18,1.18,0,0,1,39.31,82.5Zm.25-1a.36.36,0,0,0,.31-.05l-.28-1a.32.32,0,0,0-.24.28l-.07.3a.33.33,0,0,0,0,.28A.36.36,0,0,0,39.56,81.51Z"/><path class="cls-1" d="M44.39,83.21l.3-5.66,1.4.08a1.31,1.31,0,0,1,1.32,1.47l0,.75a1.42,1.42,0,0,1-.43,1,1.39,1.39,0,0,1-1,.33l-.38,0-.11,2.11Zm1.19-3.07.37,0a.42.42,0,0,0,.29-.09.37.37,0,0,0,.11-.27l0-.76a.35.35,0,0,0-.08-.27.32.32,0,0,0-.27-.12l-.38,0Z"/><path class="cls-1" d="M50.78,77.53,51,81.91a1.32,1.32,0,0,1-1.31,1.48,1.33,1.33,0,0,1-1.48-1.31L48,77.69l1-.06L49.27,82a.34.34,0,0,0,.11.27.35.35,0,0,0,.29.09.38.38,0,0,0,.27-.12A.37.37,0,0,0,50,82l-.26-4.38Z"/><path class="cls-1" d="M52.62,83l-1-5.58L53,77.18a1.36,1.36,0,0,1,1.08.19,1.43,1.43,0,0,1,.55.93l.1.6a1.56,1.56,0,0,1,0,.61,1.13,1.13,0,0,1-.22.5l-.09-.39a1.11,1.11,0,0,1,.45.39,1.38,1.38,0,0,1,.25.62l.09.49A1.36,1.36,0,0,1,55,82.18a1.34,1.34,0,0,1-.94.56ZM53,79.59l.37-.07a.36.36,0,0,0,.26-.15.4.4,0,0,0,0-.29l-.11-.6a.41.41,0,0,0-.14-.25.42.42,0,0,0-.3,0l-.37.07Zm.41,2.23.44-.08a.4.4,0,0,0,.26-.15.4.4,0,0,0,.05-.29l-.09-.49a.35.35,0,0,0-.44-.3l-.45.08Z"/><path class="cls-1" d="M56.14,76.42l1.3,4.47,1.13-.33.29,1-2.11.61-1.59-5.44Z"/><path class="cls-1" d="M60.71,80.84l-1,.36-2-5.3,1-.36Z"/><path class="cls-1" d="M63.2,79.87a1.34,1.34,0,0,1-1.08.1,1.42,1.42,0,0,1-.79-.74L61.2,79l.92-.44.13.27a.37.37,0,0,0,.21.2.4.4,0,0,0,.5-.24.37.37,0,0,0,0-.29l-.25-.52c0-.06,0-.11-.07-.14a.21.21,0,0,0-.08-.06.25.25,0,0,0-.13,0l-.23,0a8.13,8.13,0,0,1-.84.11,1.15,1.15,0,0,1-.48,0,.54.54,0,0,1-.28-.24,4.94,4.94,0,0,1-.26-.49L60,76.42a1.34,1.34,0,0,1-.1-1.08,1.31,1.31,0,0,1,.74-.78,1.31,1.31,0,0,1,1.87.64l.14.28-.92.44-.14-.27a.33.33,0,0,0-.2-.2.36.36,0,0,0-.3,0,.4.4,0,0,0-.21.22.43.43,0,0,0,0,.29l.32.68a1.05,1.05,0,0,0,.08.13.12.12,0,0,0,.07.07h.13l.23,0,.85-.11a1.28,1.28,0,0,1,.47,0,.53.53,0,0,1,.28.23,4,4,0,0,1,.27.49l.25.53a1.35,1.35,0,0,1,.1,1.07A1.32,1.32,0,0,1,63.2,79.87Z"/><path class="cls-1" d="M65.56,78.51l-3-4.79.86-.55,1.52,2.4.51-.33L63.9,72.85l.86-.55,3,4.79-.87.55-1-1.53-.51.32,1,1.53Z"/><path class="cls-1" d="M69.79,75.59l-.81.63-3.46-4.49.81-.63Z"/><path class="cls-1" d="M70.93,74.68l-3.87-4.15.56-.51,3.45,1.8-.2.19-2.51-2.69.7-.64,3.86,4.15-.55.51-3.45-1.81.19-.19L71.62,74Z"/><path class="cls-1" d="M74.93,70.78a1.38,1.38,0,0,1-1,.53,1.4,1.4,0,0,1-1-.37l-2.38-2a1.31,1.31,0,0,1-.15-2,1.34,1.34,0,0,1,.95-.53,1.42,1.42,0,0,1,1,.37l.23.2-.66.78-.23-.2a.39.39,0,0,0-.28-.1.41.41,0,0,0-.36.42.39.39,0,0,0,.15.26l2.37,2a.38.38,0,0,0,.27.11.39.39,0,0,0,.26-.15.36.36,0,0,0,.1-.28.4.4,0,0,0-.14-.25l-.41-.35-.31.36-.78-.66,1-1.14,1.19,1a1.42,1.42,0,0,1,.53.94A1.36,1.36,0,0,1,74.93,70.78Z"/><path class="cls-1" d="M20.1,63.31a1,1,0,0,1,.15.58,1.09,1.09,0,0,1-.15.56,1.17,1.17,0,0,1-1,.58,1.33,1.33,0,0,1-.56-.15,1.12,1.12,0,0,1-.58-1,1.42,1.42,0,0,1,.15-.57,1.21,1.21,0,0,1,.42-.42,1.16,1.16,0,0,1,1.14,0A1,1,0,0,1,20.1,63.31Z"/><path class="cls-1" d="M17.25,56.53l.29-.1a1.39,1.39,0,0,1,1.08,0,1.53,1.53,0,0,1,.67,1.92,1.38,1.38,0,0,1-.84.7l-2.94,1a1.35,1.35,0,0,1-1.08,0,1.4,1.4,0,0,1,.16-2.61l.29-.1.34,1-.29.1a.43.43,0,0,0-.23.18.39.39,0,0,0,0,.3.35.35,0,0,0,.19.23.36.36,0,0,0,.29,0l2.94-1a.43.43,0,0,0,.23-.18.39.39,0,0,0,0-.3.37.37,0,0,0-.19-.23.36.36,0,0,0-.29,0l-.28.1Z"/><path class="cls-1" d="M18.4,54a1.32,1.32,0,0,1-1.07,1.67l-3,.66a1.34,1.34,0,0,1-1.07-.15,1.56,1.56,0,0,1-.44-2,1.4,1.4,0,0,1,.91-.59l3-.67A1.33,1.33,0,0,1,18.4,54Zm-1,.22a.35.35,0,0,0-.16-.25A.4.4,0,0,0,17,54l-3,.67a.43.43,0,0,0-.25.15.42.42,0,0,0,0,.3.38.38,0,0,0,.16.25.41.41,0,0,0,.29,0l3-.67a.38.38,0,0,0,.25-.16A.35.35,0,0,0,17.4,54.25Z"/><path class="cls-1" d="M17.85,51.81l-5.65.54-.07-.76L15.66,50l0,.27L12,50.58l-.09-.94,5.65-.54.07.75-3.54,1.64,0-.27,3.67-.35Z"/><path class="cls-1" d="M17.57,47.75l-4.64-.08,0,.84-1,0,0-2.68h1l0,.83,4.65.08Z"/><path class="cls-1" d="M12.26,42.41l1,.11-.14,1.32,1.13.12.12-1.11,1,.11-.12,1.11,1.47.16.14-1.31,1,.11-.26,2.33L12,44.74Z"/><path class="cls-1" d="M18,42.27,12.49,41l.16-.74,3.87-.45-.05.27-3.59-.81.21-.92,5.53,1.24-.17.74-3.87.45.05-.26,3.59.81Z"/><path class="cls-1" d="M19,38.31,14.64,36.8l-.27.79-1-.33.87-2.54,1,.33-.27.79,4.4,1.51Z"/><path class="cls-1" d="M20.56,34.46l-5-2.7.66-1.23a1.33,1.33,0,0,1,.83-.71,1.38,1.38,0,0,1,1.07.15l2.52,1.37a1.32,1.32,0,0,1,.57,1.89Zm-.41-1.38.18-.33a.37.37,0,0,0,0-.3.35.35,0,0,0-.19-.21l-2.53-1.38a.4.4,0,0,0-.28,0,.35.35,0,0,0-.23.2l-.18.33Z"/><path class="cls-1" d="M19.07,26.1l.84.59-.76,1.08.93.65.64-.91.84.58-.64.92,1.2.84.76-1.08.84.58-1.35,1.92L17.73,28Z"/><path class="cls-1" d="M24.62,28.26l-5-2.92.69-.79L24,26.84l-.09.1-2.77-3.25.68-.78,3.58,4.52Z"/><path class="cls-1" d="M24.32,20.51l.69.75-1,.9.77.83.82-.75.69.75-.82.75,1,1.09,1-.9.69.75-1.72,1.59L22.59,22.1Z"/><path class="cls-1" d="M26.17,19.05,29,22.76l.93-.71.62.81-1.75,1.33-3.42-4.52Z"/><path class="cls-1" d="M32.2,22a1.38,1.38,0,0,1-1.08.19,1.34,1.34,0,0,1-.84-.67l-1.61-2.67a1.4,1.4,0,0,1-.2-1.07,1.56,1.56,0,0,1,1.75-1.05,1.4,1.4,0,0,1,.85.68l1.6,2.67A1.32,1.32,0,0,1,32.2,22Zm-.53-.88a.42.42,0,0,0,.19-.23.4.4,0,0,0-.06-.29L30.19,17.9a.42.42,0,0,0-.22-.18.37.37,0,0,0-.3.05.38.38,0,0,0-.18.24.36.36,0,0,0,.06.28L31.15,21a.39.39,0,0,0,.23.19A.4.4,0,0,0,31.67,21.09Z"/><path class="cls-1" d="M34.13,20.73,31.8,15.57,33.07,15a1.4,1.4,0,0,1,1.09-.07,1.37,1.37,0,0,1,.76.77l.31.69a1.3,1.3,0,0,1-.69,1.85l-.35.16.87,1.93Zm-.36-3.27.35-.16a.36.36,0,0,0,.21-.21.37.37,0,0,0,0-.29L34,16.11a.38.38,0,0,0-.2-.21.4.4,0,0,0-.3,0l-.34.16Z"/><path class="cls-1" d="M37.77,13.26l.31,1-1.26.41.35,1.08,1.07-.35.31,1-1.06.34.45,1.4,1.26-.41.32,1-2.23.72L35.54,14Z"/><path class="cls-1" d="M40.27,18.45,39.14,12.9l1.37-.28a1.3,1.3,0,0,1,1.65,1.09l.18.89a1.48,1.48,0,0,1,0,.73,1.2,1.2,0,0,1-.34.57l-.14-.31a1.06,1.06,0,0,1,.57.24.92.92,0,0,1,.28.51L43,17.9l-1,.2-.32-1.55a.36.36,0,0,0-.15-.25.35.35,0,0,0-.29-.05l-.37.08.39,1.92Zm.4-3.12.37-.08a.37.37,0,0,0,.26-.16.38.38,0,0,0,0-.28l-.18-.89a.36.36,0,0,0-.15-.25.38.38,0,0,0-.3-.05l-.37.08Z"/><path class="cls-1" d="M45.11,17.81a1.31,1.31,0,0,1-1-.3,1.35,1.35,0,0,1-.46-1l0-.3,1-.08,0,.3a.38.38,0,0,0,.12.26.35.35,0,0,0,.29.08.38.38,0,0,0,.27-.12.39.39,0,0,0,.08-.28l-.05-.58c0-.07,0-.12,0-.16a.14.14,0,0,0-.05-.08l-.11-.06-.23,0c-.36-.08-.63-.14-.83-.2a1.14,1.14,0,0,1-.43-.21.56.56,0,0,1-.18-.32c0-.13,0-.32-.07-.55l-.06-.75a1.39,1.39,0,0,1,.3-1,1.54,1.54,0,0,1,2-.17,1.36,1.36,0,0,1,.46,1l0,.3-1,.08,0-.3A.38.38,0,0,0,45,13a.33.33,0,0,0-.28-.08.38.38,0,0,0-.27.12.39.39,0,0,0-.08.28l.06.76c0,.06,0,.11,0,.15a.19.19,0,0,0,0,.09.23.23,0,0,0,.11.05l.23,0c.36.08.63.15.83.21a1.15,1.15,0,0,1,.43.2.6.6,0,0,1,.18.32c0,.14,0,.32.07.55l0,.58a1.31,1.31,0,0,1-1.28,1.51Z"/><path class="cls-1" d="M50.3,17.84a1.31,1.31,0,0,1-.95-.48,1.38,1.38,0,0,1-.29-1.05l0-.3a1.46,1.46,0,0,1,.26-.74,1.13,1.13,0,0,1,.55-.44l-.57-1.32,0-.3A1.31,1.31,0,0,1,50.88,12a1.34,1.34,0,0,1,1,.48,1.38,1.38,0,0,1,.28,1.05l0,.3-1-.1,0-.3a.42.42,0,0,0-.07-.28.43.43,0,0,0-.56,0,.38.38,0,0,0-.13.26l0,.3.74,1.7.27-1.15.86.08-.55,2.4.45,1,0,.23-.92-.09-.08-.18a.78.78,0,0,1-.35.18A1.28,1.28,0,0,1,50.3,17.84Zm.12-1a.38.38,0,0,0,.3-.09l-.41-.94a.35.35,0,0,0-.2.32l0,.3a.37.37,0,0,0,.07.28A.35.35,0,0,0,50.42,16.82Z"/><path class="cls-1" d="M57.59,17.6l-.09.29a1.37,1.37,0,0,1-.63.87,1.4,1.4,0,0,1-1.09.1,1.32,1.32,0,0,1-1-1.73l.85-3a1.35,1.35,0,0,1,.64-.87,1.33,1.33,0,0,1,1.08-.09,1.36,1.36,0,0,1,.88.64,1.42,1.42,0,0,1,.09,1.08l-.08.29-1-.28.08-.29a.36.36,0,0,0,0-.29.39.39,0,0,0-.25-.17.32.32,0,0,0-.29,0,.36.36,0,0,0-.17.24l-.85,3a.41.41,0,0,0,0,.29.39.39,0,0,0,.25.17.32.32,0,0,0,.29,0,.4.4,0,0,0,.17-.24l.08-.29Z"/><path class="cls-1" d="M57.82,19.36,60,14.12l1.29.54a1.33,1.33,0,0,1,.79.75,1.36,1.36,0,0,1,0,1.08l-.35.84a1.6,1.6,0,0,1-.41.59,1.27,1.27,0,0,1-.61.28l.06-.34a1.1,1.1,0,0,1,.33.52A.87.87,0,0,1,61,19l-.61,1.46L59.46,20l.61-1.47a.42.42,0,0,0,0-.29.4.4,0,0,0-.22-.2l-.35-.15-.76,1.82ZM59.91,17l.35.15a.39.39,0,0,0,.3,0,.38.38,0,0,0,.19-.22l.35-.83a.43.43,0,0,0,0-.29.41.41,0,0,0-.22-.21l-.35-.14Z"/><path class="cls-1" d="M66,17l-.49.89-1.16-.64-.55,1,1,.54-.5.9-1-.55-.71,1.29,1.15.64-.49.9-2.05-1.14,2.75-5Z"/><path class="cls-1" d="M63.53,22.14l4.15-4,.9.64L66.17,24l-.85-.6.4-.8L65,22.1l-.62.64Zm2.19-.79.47.33,1.09-2.15.11.08Z"/><path class="cls-1" d="M66.75,24.53l3-3.52-.63-.55.66-.77,2,1.75-.67.77-.63-.54-3,3.52Z"/><path class="cls-1" d="M69.35,27.15a1.33,1.33,0,0,1-.41-1,1.36,1.36,0,0,1,.48-1L71.69,23a1.32,1.32,0,0,1,2,.07,1.31,1.31,0,0,1-.07,2l-2.27,2.13a1.36,1.36,0,0,1-1,.42A1.39,1.39,0,0,1,69.35,27.15Zm.75-.7a.36.36,0,0,0,.27.14.37.37,0,0,0,.26-.12l2.27-2.13a.38.38,0,0,0,.14-.26.39.39,0,0,0-.12-.27.36.36,0,0,0-.27-.14.37.37,0,0,0-.26.12l-2.28,2.13a.41.41,0,0,0-.13.26A.39.39,0,0,0,70.1,26.45Z"/><path class="cls-1" d="M71,28.78l4.57-3.35.83,1.13a1.36,1.36,0,0,1,.29,1.05,1.39,1.39,0,0,1-.59.9l-.73.54a1.58,1.58,0,0,1-.67.29,1.28,1.28,0,0,1-.67-.08l.23-.25a1.16,1.16,0,0,1,0,.61.91.91,0,0,1-.35.48L72.62,31l-.6-.83,1.28-.93a.37.37,0,0,0,.16-.25.34.34,0,0,0-.08-.28l-.22-.31L71.57,29.6Zm3-.94.22.3a.39.39,0,0,0,.25.17.42.42,0,0,0,.28-.08l.73-.54a.39.39,0,0,0,.17-.24.4.4,0,0,0-.08-.29l-.23-.3Z"/><path class="cls-1" d="M73.59,32.92a1.36,1.36,0,0,1-.16-1.08,1.39,1.39,0,0,1,.69-.83l.26-.15.51.89-.27.15a.4.4,0,0,0-.19.22.42.42,0,0,0,0,.3.38.38,0,0,0,.23.19.4.4,0,0,0,.28,0l.51-.29.13-.08a.16.16,0,0,0,.06-.08.24.24,0,0,0,0-.12c0-.06,0-.13,0-.23-.09-.36-.14-.64-.17-.84a1.06,1.06,0,0,1,0-.48.53.53,0,0,1,.21-.29c.12-.09.27-.18.47-.3l.66-.37a1.32,1.32,0,0,1,1.91.53,1.37,1.37,0,0,1,.17,1.08,1.41,1.41,0,0,1-.7.83l-.26.14-.51-.88.27-.15a.4.4,0,0,0,.19-.22.37.37,0,0,0-.05-.3.38.38,0,0,0-.23-.19.36.36,0,0,0-.28.05l-.66.37-.13.08a.21.21,0,0,0-.06.08.28.28,0,0,0,0,.13c0,.06,0,.13,0,.23.08.35.14.63.17.84a1,1,0,0,1,0,.47.5.5,0,0,1-.22.3,3.7,3.7,0,0,1-.47.29l-.5.29a1.43,1.43,0,0,1-1.07.17A1.39,1.39,0,0,1,73.59,32.92Z"/><path class="cls-1" d="M77.83,38.44l-.29.1a1.39,1.39,0,0,1-1.08,0,1.55,1.55,0,0,1-.68-1.92,1.36,1.36,0,0,1,.83-.7l2.93-1a1.33,1.33,0,0,1,1.79.85,1.41,1.41,0,0,1,0,1.09,1.43,1.43,0,0,1-.83.7l-.29.1-.34-1,.28-.1a.37.37,0,0,0,.23-.19.39.39,0,0,0,0-.3.37.37,0,0,0-.19-.23.48.48,0,0,0-.29,0l-2.93,1a.37.37,0,0,0-.23.19.39.39,0,0,0,0,.3.37.37,0,0,0,.19.23.48.48,0,0,0,.29,0l.28-.1Z"/><path class="cls-1" d="M76.69,41a1.32,1.32,0,0,1,1.06-1.68l3-.69a1.44,1.44,0,0,1,1.53,2.14,1.38,1.38,0,0,1-.91.59l-3,.69a1.46,1.46,0,0,1-1.08-.14A1.43,1.43,0,0,1,76.69,41Zm1-.23a.35.35,0,0,0,.16.25.4.4,0,0,0,.29,0l3-.69a.38.38,0,0,0,.24-.16.34.34,0,0,0,0-.3.33.33,0,0,0-.16-.24.36.36,0,0,0-.29,0l-3,.69a.37.37,0,0,0-.24.15A.34.34,0,0,0,77.69,40.72Z"/><path class="cls-1" d="M83.18,45.33l-4.37.44a1.44,1.44,0,0,1-1.25-2.3,1.36,1.36,0,0,1,1-.48l4.37-.44.1,1L78.63,44a.38.38,0,0,0-.26.12.35.35,0,0,0-.08.29.39.39,0,0,0,.13.27.4.4,0,0,0,.29.07l4.37-.44Z"/><path class="cls-1" d="M77.57,46.85l5.67.11v.76l-3.7,1.22v-.28l3.69.08,0,.94-5.67-.11v-.76l3.7-1.22v.28l-3.68-.08Z"/><path class="cls-1" d="M78.62,53.46l-.3-.05a1.3,1.3,0,0,1-1.19-1.57,1.39,1.39,0,0,1,.52-1,1.44,1.44,0,0,1,1.06-.24l3.08.43a1.44,1.44,0,0,1,.67,2.54,1.37,1.37,0,0,1-1,.23l-.3,0,.14-1,.3,0a.34.34,0,0,0,.28-.06.32.32,0,0,0,.14-.26.34.34,0,0,0-.06-.29.39.39,0,0,0-.26-.14l-3.08-.43a.45.45,0,0,0-.29.06.45.45,0,0,0-.08.56.38.38,0,0,0,.26.13l.3.05Z"/><path class="cls-1" d="M76.65,54.94l.23-1,5.52,1.3-.23,1Z"/><path class="cls-1" d="M81.47,58.63l-4.42-1.42-.36,1.11-1-.31.67-2.09,5.4,1.74Z"/><path class="cls-1" d="M75.46,62.54a1.16,1.16,0,0,1,.41-.44,1.22,1.22,0,0,1,.56-.17,1.17,1.17,0,0,1,1,.54,1.22,1.22,0,0,1,.17.56,1.1,1.1,0,0,1-.13.58,1.11,1.11,0,0,1-.4.43,1.26,1.26,0,0,1-.57.17,1,1,0,0,1-.57-.13,1.06,1.06,0,0,1-.43-.41,1.12,1.12,0,0,1-.18-.56A1,1,0,0,1,75.46,62.54Z"/><path class="cls-1" d="M60.88,42.56v9.29a2.35,2.35,0,0,1-2.34,2.35H36.59a2.35,2.35,0,0,1-2.34-2.35V42.56a1.58,1.58,0,0,1,.47-1.13A1.6,1.6,0,0,1,35.85,41a12.18,12.18,0,0,1,11.71,8.79A12.22,12.22,0,0,1,59.28,41a1.6,1.6,0,0,1,1.13.47A1.58,1.58,0,0,1,60.88,42.56Z"/></svg>