<svg id="Layer_1" data-name="Layer 1" xmlns="http://www.w3.org/2000/svg" viewBox="0 0 98.7 40.26"><defs><style>.cls-1{fill:#2b2b2b;}</style></defs><path class="cls-1" d="M14.06,28.29v.18a.85.85,0,0,1-.23.63.84.84,0,0,1-.63.24.85.85,0,0,1-.63-.24.89.89,0,0,1-.23-.63V26.55a.8.8,0,0,1,.86-.86.87.87,0,0,1,.63.23.85.85,0,0,1,.23.63v.19h-.63v-.19a.24.24,0,0,0-.06-.17.22.22,0,0,0-.17-.06.21.21,0,0,0-.23.23v1.92a.24.24,0,0,0,.06.17.24.24,0,0,0,.17.07.22.22,0,0,0,.17-.07.24.24,0,0,0,.06-.17v-.18Z"/><path class="cls-1" d="M15.37,29.34a.81.81,0,0,1-.62-.24.85.85,0,0,1-.24-.63V26.55a.87.87,0,1,1,1.73,0v1.92a.85.85,0,0,1-.24.63A.82.82,0,0,1,15.37,29.34Zm0-.63a.25.25,0,0,0,.18-.07.24.24,0,0,0,.06-.17V26.55a.24.24,0,0,0-.06-.17.24.24,0,0,0-.18-.06.21.21,0,0,0-.23.23v1.92a.24.24,0,0,0,.06.17A.24.24,0,0,0,15.37,28.71Z"/><path class="cls-1" d="M16.87,29.26v-3.5h.46l.8,2.27H18V25.76h.59v3.5h-.47L17.28,27h.17v2.27Z"/><path class="cls-1" d="M19.45,29.26V26.39h-.52v-.63h1.66v.63h-.51v2.87Z"/><path class="cls-1" d="M22.42,25.76v.63h-.81v.7h.69v.63h-.69v.91h.81v.63H21v-3.5Z"/><path class="cls-1" d="M23,29.26v-3.5h.47L24.23,28h-.16V25.76h.58v3.5h-.47L23.38,27h.17v2.27Z"/><path class="cls-1" d="M25.55,29.26V26.39H25v-.63h1.65v.63h-.51v2.87Z"/><path class="cls-1" d="M28.2,29.26v-3.5h.86a.82.82,0,0,1,.63.24.84.84,0,0,1,.24.62V28.4a.82.82,0,0,1-.87.86Zm.63-.63h.23a.26.26,0,0,0,.18-.06.25.25,0,0,0,.06-.17V26.62a.21.21,0,0,0-.06-.16.23.23,0,0,0-.18-.07h-.23Z"/><path class="cls-1" d="M32,25.76v.63h-.81v.7h.69v.63h-.69v.91H32v.63H30.54v-3.5Z"/><path class="cls-1" d="M32.92,29.26l-.66-3.5h.64l.4,2.61h-.08l.39-2.61h.64l-.65,3.5Z"/><path class="cls-1" d="M36.11,25.76v.63h-.82v.7H36v.63h-.69v.91h.82v.63H34.66v-3.5Z"/><path class="cls-1" d="M37.28,25.76v2.87H38v.63H36.65v-3.5Z"/><path class="cls-1" d="M39.23,29.34a.82.82,0,0,1-.63-.24.85.85,0,0,1-.24-.63V26.55a.81.81,0,0,1,.87-.86.8.8,0,0,1,.86.86v1.92a.89.89,0,0,1-.23.63A.85.85,0,0,1,39.23,29.34Zm0-.63a.24.24,0,0,0,.17-.07.24.24,0,0,0,.06-.17V26.55a.21.21,0,0,0-.23-.23.26.26,0,0,0-.18.06.24.24,0,0,0-.06.17v1.92a.24.24,0,0,0,.06.17A.27.27,0,0,0,39.23,28.71Z"/><path class="cls-1" d="M40.72,29.26v-3.5h.86a.82.82,0,0,1,.63.24.84.84,0,0,1,.24.62v.47a.81.81,0,0,1-.87.86h-.23v1.31Zm.63-1.94h.23a.24.24,0,0,0,.18-.06.24.24,0,0,0,.06-.17v-.47a.21.21,0,0,0-.06-.16.21.21,0,0,0-.18-.07h-.23Z"/><path class="cls-1" d="M44.36,25.76v.63h-.82v.7h.69v.63h-.69v.91h.82v.63H42.91v-3.5Z"/><path class="cls-1" d="M44.9,29.26v-3.5h.87a.85.85,0,0,1,.63.24.88.88,0,0,1,.23.62v.56a.89.89,0,0,1-.1.44.76.76,0,0,1-.28.31l0-.21a.65.65,0,0,1,.31.22.55.55,0,0,1,.11.34v1H46v-1a.21.21,0,0,0-.23-.23h-.24v1.21Zm.63-1.84h.24a.21.21,0,0,0,.17-.07.24.24,0,0,0,.06-.17v-.56a.21.21,0,0,0-.06-.16.21.21,0,0,0-.17-.07h-.24Z"/><path class="cls-1" d="M48,29.34a.82.82,0,0,1-.63-.24.85.85,0,0,1-.24-.63v-.18h.63v.18a.24.24,0,0,0,.06.17.27.27,0,0,0,.18.07.24.24,0,0,0,.17-.07.24.24,0,0,0,.06-.17V28l0-.06a.14.14,0,0,0-.07,0l-.13,0c-.22-.07-.39-.12-.5-.17a.58.58,0,0,1-.26-.15.34.34,0,0,1-.09-.2,3,3,0,0,1,0-.34v-.47a.81.81,0,0,1,.87-.86.8.8,0,0,1,.86.86v.19h-.63v-.19a.21.21,0,0,0-.23-.23.26.26,0,0,0-.18.06.24.24,0,0,0-.06.17V27s0,.07,0,.09a.11.11,0,0,0,0,.06l.07,0,.14,0a4.7,4.7,0,0,1,.5.17.63.63,0,0,1,.25.14.51.51,0,0,1,.1.21,3.33,3.33,0,0,1,0,.34v.36a.89.89,0,0,1-.23.63A.85.85,0,0,1,48,29.34Z"/><path class="cls-1" d="M51.33,29.34a.84.84,0,0,1-.62-.24.89.89,0,0,1-.23-.63v-.18a1.06,1.06,0,0,1,.11-.48.81.81,0,0,1,.31-.3l-.42-.77v-.19a.8.8,0,0,1,.86-.86.81.81,0,0,1,.87.86v.19h-.63v-.19a.24.24,0,0,0-.06-.17.26.26,0,0,0-.18-.06.21.21,0,0,0-.23.23v.19l.56,1,.09-.72h.54l-.2,1.5.34.6v.14h-.58l0-.1a.57.57,0,0,1-.21.13A.72.72,0,0,1,51.33,29.34Zm0-.63a.22.22,0,0,0,.18-.08l-.3-.55a.22.22,0,0,0-.11.21v.18a.24.24,0,0,0,.06.17A.24.24,0,0,0,51.34,28.71Z"/><path class="cls-1" d="M55.75,28.29v.18a.89.89,0,0,1-.23.63.85.85,0,0,1-.63.24.84.84,0,0,1-.63-.24.85.85,0,0,1-.24-.63V26.55a.85.85,0,0,1,.24-.63.87.87,0,0,1,.63-.23.8.8,0,0,1,.86.86v.19h-.63v-.19a.21.21,0,0,0-.23-.23.22.22,0,0,0-.17.06.21.21,0,0,0-.07.17v1.92a.21.21,0,0,0,.07.17.22.22,0,0,0,.17.07.24.24,0,0,0,.17-.07.24.24,0,0,0,.06-.17v-.18Z"/><path class="cls-1" d="M56.25,29.26v-3.5h.86a.82.82,0,0,1,.63.24.84.84,0,0,1,.24.62v.56a1,1,0,0,1-.1.44.84.84,0,0,1-.28.31l-.05-.21a.68.68,0,0,1,.32.22.55.55,0,0,1,.11.34v1h-.63v-1a.24.24,0,0,0-.06-.17.24.24,0,0,0-.18-.06h-.23v1.21Zm.63-1.84h.23a.21.21,0,0,0,.18-.07.24.24,0,0,0,.06-.17v-.56a.21.21,0,0,0-.06-.16.21.21,0,0,0-.18-.07h-.23Z"/><path class="cls-1" d="M60.05,25.76v.63h-.82v.7h.69v.63h-.69v.91h.82v.63H58.6v-3.5Z"/><path class="cls-1" d="M60.32,29.26l.67-3.5h.68l.65,3.5h-.65l-.08-.55h-.54l-.08.55Zm.82-1.18h.36l-.22-1.47h.09Z"/><path class="cls-1" d="M62.85,29.26V26.39h-.51v-.63H64v.63h-.51v2.87Z"/><path class="cls-1" d="M65.19,29.34a.85.85,0,0,1-.63-.24.89.89,0,0,1-.23-.63V26.55a.8.8,0,0,1,.86-.86.81.81,0,0,1,.87.86v1.92a.85.85,0,0,1-.24.63A.82.82,0,0,1,65.19,29.34Zm0-.63a.25.25,0,0,0,.18-.07.24.24,0,0,0,.06-.17V26.55a.24.24,0,0,0-.06-.17.24.24,0,0,0-.18-.06.21.21,0,0,0-.23.23v1.92a.24.24,0,0,0,.06.17A.24.24,0,0,0,65.19,28.71Z"/><path class="cls-1" d="M66.69,29.26v-3.5h.86a.85.85,0,0,1,.63.24.88.88,0,0,1,.23.62v.56a.89.89,0,0,1-.1.44.7.7,0,0,1-.28.31l0-.21a.65.65,0,0,1,.31.22.5.5,0,0,1,.11.34v1h-.63v-1a.21.21,0,0,0-.23-.23h-.23v1.21Zm.63-1.84h.23a.21.21,0,0,0,.17-.07.24.24,0,0,0,.06-.17v-.56a.21.21,0,0,0-.06-.16.21.21,0,0,0-.17-.07h-.23Z"/><path class="cls-1" d="M69.79,29.34a.81.81,0,0,1-.86-.87v-.18h.63v.18a.24.24,0,0,0,.06.17.22.22,0,0,0,.17.07.24.24,0,0,0,.17-.07.24.24,0,0,0,.06-.17V28A.11.11,0,0,0,70,28a.14.14,0,0,0-.07,0l-.13,0c-.22-.07-.39-.12-.5-.17a.58.58,0,0,1-.26-.15.34.34,0,0,1-.09-.2,3.33,3.33,0,0,1,0-.34v-.47a.85.85,0,0,1,.23-.63.86.86,0,0,1,1.49.63v.19H70v-.19a.21.21,0,0,0-.23-.23.22.22,0,0,0-.17.06.24.24,0,0,0-.06.17v.56a.11.11,0,0,0,0,.06l.07,0,.14,0a4.7,4.7,0,0,1,.5.17.63.63,0,0,1,.25.14.35.35,0,0,1,.1.21,3.33,3.33,0,0,1,0,.34v.36a.89.89,0,0,1-.23.63A.85.85,0,0,1,69.79,29.34Z"/><path class="cls-1" d="M74,28.29v.18a.89.89,0,0,1-.23.63.85.85,0,0,1-.63.24.84.84,0,0,1-.63-.24.85.85,0,0,1-.24-.63V26.55a.85.85,0,0,1,.24-.63.87.87,0,0,1,.63-.23.8.8,0,0,1,.86.86v.19h-.63v-.19a.21.21,0,0,0-.23-.23.22.22,0,0,0-.17.06.24.24,0,0,0-.07.17v1.92a.24.24,0,0,0,.07.17.22.22,0,0,0,.17.07.24.24,0,0,0,.17-.07.24.24,0,0,0,.06-.17v-.18Z"/><path class="cls-1" d="M75.31,29.34a.85.85,0,0,1-.63-.24.89.89,0,0,1-.23-.63V26.55a.8.8,0,0,1,.86-.86.85.85,0,0,1,.63.23.85.85,0,0,1,.23.63v1.92a.85.85,0,0,1-.23.63A.82.82,0,0,1,75.31,29.34Zm0-.63a.22.22,0,0,0,.17-.07.24.24,0,0,0,.07-.17V26.55a.24.24,0,0,0-.07-.17.22.22,0,0,0-.17-.06.21.21,0,0,0-.23.23v1.92a.24.24,0,0,0,.06.17A.24.24,0,0,0,75.31,28.71Z"/><path class="cls-1" d="M78.51,25.76v2.71a.85.85,0,0,1-.24.63.93.93,0,0,1-1.25,0,.85.85,0,0,1-.24-.63V25.76h.63v2.71a.24.24,0,0,0,.06.17.24.24,0,0,0,.17.07.25.25,0,0,0,.18-.07.24.24,0,0,0,.06-.17V25.76Z"/><path class="cls-1" d="M79.17,29.26v-3.5h.46l.8,2.27h-.17V25.76h.59v3.5h-.47L79.58,27h.17v2.27Z"/><path class="cls-1" d="M83.2,28.29v.18a.89.89,0,0,1-.23.63.85.85,0,0,1-.63.24.84.84,0,0,1-.63-.24.85.85,0,0,1-.24-.63V26.55a.85.85,0,0,1,.24-.63.87.87,0,0,1,.63-.23.8.8,0,0,1,.86.86v.19h-.63v-.19a.21.21,0,0,0-.23-.23.26.26,0,0,0-.18.06.24.24,0,0,0-.06.17v1.92a.24.24,0,0,0,.06.17.27.27,0,0,0,.18.07.24.24,0,0,0,.17-.07.24.24,0,0,0,.06-.17v-.18Z"/><path class="cls-1" d="M84.33,29.26H83.7v-3.5h.63Z"/><path class="cls-1" d="M85.64,25.76v2.87h.72v.63H85v-3.5Z"/><path class="cls-1" d="M22.42,35.17V32.39h.69a.6.6,0,0,1,.44.17.65.65,0,0,1,.16.46v.23a.81.81,0,0,1-.06.31.63.63,0,0,1-.18.21v-.09a.53.53,0,0,1,.21.21.74.74,0,0,1,.08.34v.31a.65.65,0,0,1-.17.46.58.58,0,0,1-.43.17Zm.28-1.57h.41a.26.26,0,0,0,.23-.1.35.35,0,0,0,.09-.25V33a.37.37,0,0,0-.09-.26.29.29,0,0,0-.23-.09H22.7Zm0,1.29h.45a.29.29,0,0,0,.23-.1.35.35,0,0,0,.09-.25v-.31a.37.37,0,0,0-.09-.26.32.32,0,0,0-.23-.09H22.7Z"/><path class="cls-1" d="M26.42,35.23a.62.62,0,0,1-.48-.19.7.7,0,0,1-.18-.5V33a.67.67,0,0,1,.18-.49.62.62,0,0,1,.48-.19.61.61,0,0,1,.47.19.67.67,0,0,1,.18.49v1.53a.7.7,0,0,1-.18.5A.61.61,0,0,1,26.42,35.23Zm0-.28a.37.37,0,0,0,.27-.11.42.42,0,0,0,.11-.3V33a.4.4,0,0,0-.11-.29.33.33,0,0,0-.27-.11.34.34,0,0,0-.28.11A.39.39,0,0,0,26,33v1.53a.42.42,0,0,0,.1.3A.38.38,0,0,0,26.42,35Z"/><path class="cls-1" d="M29.79,35.23a.62.62,0,0,1-.48-.19.7.7,0,0,1-.18-.5V33a.67.67,0,0,1,.18-.49.62.62,0,0,1,.48-.19.58.58,0,0,1,.47.19.67.67,0,0,1,.18.49v1.53a.7.7,0,0,1-.18.5A.58.58,0,0,1,29.79,35.23Zm0-.28a.37.37,0,0,0,.27-.11.42.42,0,0,0,.11-.3V33a.4.4,0,0,0-.11-.29.33.33,0,0,0-.27-.11.34.34,0,0,0-.28.11.39.39,0,0,0-.1.29v1.53a.42.42,0,0,0,.1.3A.38.38,0,0,0,29.79,35Z"/><path class="cls-1" d="M32.54,35.17V32.39h.28v2.78Zm1.11,0L33,33.71l-.19.28v-.46l.8-1.14h.3l-.72,1L34,35.17Z"/><path class="cls-1" d="M36.39,35.23a.62.62,0,0,1-.48-.19.7.7,0,0,1-.18-.5v-.09H36v.09a.42.42,0,0,0,.11.3.37.37,0,0,0,.27.11.38.38,0,0,0,.28-.11.42.42,0,0,0,.1-.3v-.2a.81.81,0,0,0,0-.17.1.1,0,0,0,0-.09.23.23,0,0,0-.11-.07,1,1,0,0,0-.22-.08L36,33.79a.53.53,0,0,1-.2-.11.39.39,0,0,1-.07-.16c0-.07,0-.16,0-.28V33a.67.67,0,0,1,.18-.49.7.7,0,0,1,1,0,.67.67,0,0,1,.18.49v.1h-.28V33a.39.39,0,0,0-.1-.29.34.34,0,0,0-.28-.11.33.33,0,0,0-.27.11A.4.4,0,0,0,36,33v.23a.71.71,0,0,0,0,.16.15.15,0,0,0,0,.1.35.35,0,0,0,.11.07l.22.08.38.13a.7.7,0,0,1,.2.12.26.26,0,0,1,.07.16,2.18,2.18,0,0,1,0,.28v.2a.7.7,0,0,1-.18.5A.62.62,0,0,1,36.39,35.23Z"/><path class="cls-1" d="M42,35.22A.66.66,0,0,1,41.5,35a.7.7,0,0,1-.18-.5v-.27a.78.78,0,0,1,.08-.35.57.57,0,0,1,.2-.23l-.28-.49V33a.7.7,0,0,1,.18-.5.7.7,0,0,1,1,0,.68.68,0,0,1,.18.5v.09h-.28V33a.42.42,0,0,0-.1-.3.39.39,0,0,0-.28-.11.35.35,0,0,0-.27.11.42.42,0,0,0-.11.3v.16l.78,1.31.16-.83h.23l-.22,1.14.19.32v0h-.26L42.4,35a.59.59,0,0,1-.18.13A.57.57,0,0,1,42,35.22Zm0-.28a.32.32,0,0,0,.28-.13l-.52-.88a.37.37,0,0,0-.15.33v.27a.44.44,0,0,0,.11.3A.36.36,0,0,0,42,34.94Z"/><path class="cls-1" d="M47.1,35.17V32.39h.69a.58.58,0,0,1,.43.17.65.65,0,0,1,.17.46v.3a.65.65,0,0,1-.17.46.58.58,0,0,1-.43.17h-.41v1.22Zm.28-1.5h.41a.29.29,0,0,0,.23-.1.33.33,0,0,0,.09-.25V33a.37.37,0,0,0-.09-.26.32.32,0,0,0-.23-.09h-.41Z"/><path class="cls-1" d="M51.64,32.39v2.15a.7.7,0,0,1-.18.5.62.62,0,0,1-.48.19.61.61,0,0,1-.47-.19.7.7,0,0,1-.18-.5V32.39h.27v2.15a.42.42,0,0,0,.11.3A.37.37,0,0,0,51,35a.38.38,0,0,0,.28-.11.42.42,0,0,0,.1-.3V32.39Z"/><path class="cls-1" d="M53.76,35.17V32.39h.69a.58.58,0,0,1,.43.17.65.65,0,0,1,.17.46v.23a.67.67,0,0,1-.07.31.46.46,0,0,1-.18.21v-.09a.53.53,0,0,1,.21.21.74.74,0,0,1,.07.34v.31a.65.65,0,0,1-.16.46.6.6,0,0,1-.44.17ZM54,33.6h.41a.29.29,0,0,0,.23-.1.35.35,0,0,0,.09-.25V33a.37.37,0,0,0-.09-.26.32.32,0,0,0-.23-.09H54Zm0,1.29h.44a.3.3,0,0,0,.24-.1.35.35,0,0,0,.09-.25v-.31a.37.37,0,0,0-.09-.26.32.32,0,0,0-.24-.09H54Z"/><path class="cls-1" d="M57.41,32.39v2.5h.77v.28h-1V32.39Z"/><path class="cls-1" d="M60.34,35.17h-.27V32.39h.27Z"/><path class="cls-1" d="M63,35.23a.62.62,0,0,1-.48-.19.7.7,0,0,1-.18-.5v-.09h.28v.09a.47.47,0,0,0,.1.3.41.41,0,0,0,.56,0,.47.47,0,0,0,.1-.3v-.2a.81.81,0,0,0,0-.17.1.1,0,0,0,0-.09.23.23,0,0,0-.11-.07,1.32,1.32,0,0,0-.22-.08l-.38-.14a.53.53,0,0,1-.2-.11.29.29,0,0,1-.07-.16c0-.07,0-.16,0-.28V33a.67.67,0,0,1,.18-.49.7.7,0,0,1,1,0,.67.67,0,0,1,.18.49v.1h-.28V33a.44.44,0,0,0-.1-.29.41.41,0,0,0-.56,0,.44.44,0,0,0-.1.29v.23a.71.71,0,0,0,0,.16.12.12,0,0,0,0,.1.35.35,0,0,0,.11.07l.22.08.38.13a.7.7,0,0,1,.2.12.26.26,0,0,1,.07.16c0,.07,0,.16,0,.28v.2a.7.7,0,0,1-.18.5A.62.62,0,0,1,63,35.23Z"/><path class="cls-1" d="M65.71,35.17V32.39H66v1.42h.71V32.39H67v2.78H66.7V34.08H66v1.09Z"/><path class="cls-1" d="M69.4,35.17h-.28V32.39h.28Z"/><path class="cls-1" d="M71.53,35.17V32.39h.25l.87,2.26h-.08V32.39h.27v2.78h-.25l-.87-2.27h.08v2.28Z"/><path class="cls-1" d="M75.59,35.23a.62.62,0,0,1-.48-.19.7.7,0,0,1-.18-.5V33a.67.67,0,0,1,.18-.49.7.7,0,0,1,1,0,.67.67,0,0,1,.18.49v.1H76V33a.39.39,0,0,0-.1-.29.34.34,0,0,0-.28-.11.36.36,0,0,0-.28.11.44.44,0,0,0-.1.29v1.53a.47.47,0,0,0,.1.3.39.39,0,0,0,.28.11.38.38,0,0,0,.28-.11.42.42,0,0,0,.1-.3v-.43H75.6v-.28h.65v.71a.7.7,0,0,1-.18.5A.62.62,0,0,1,75.59,35.23Z"/><path class="cls-1" d="M58.93,15.26v2.07c0,2.51-1.25,3.94-3.67,3.94s-3.66-1.43-3.66-3.94V9.21c0-2.51,1.25-3.93,3.66-3.93s3.67,1.42,3.67,3.93v1.51H56.6V9.05c0-1.12-.49-1.54-1.27-1.54s-1.27.42-1.27,1.54v8.44c0,1.12.49,1.52,1.27,1.52s1.27-.4,1.27-1.52V15.26Z"/><path class="cls-1" d="M60.42,5.45h3.89C66.76,5.45,68,6.82,68,9.32v7.9c0,2.5-1.21,3.87-3.66,3.87H60.42Zm2.46,2.24V18.85h1.38c.78,0,1.25-.4,1.25-1.52V9.21c0-1.12-.47-1.52-1.25-1.52Z"/><path class="cls-1" d="M76.65,15.26v2.07c0,2.51-1.25,3.94-3.66,3.94s-3.66-1.43-3.66-3.94V9.21c0-2.51,1.25-3.93,3.66-3.93s3.66,1.42,3.66,3.93v1.51H74.33V9.05c0-1.12-.49-1.54-1.27-1.54s-1.27.42-1.27,1.54v8.44c0,1.12.49,1.52,1.27,1.52s1.27-.4,1.27-1.52V15.26Z"/><path class="cls-1" d="M85.27,15.26v2.07c0,2.51-1.25,3.94-3.66,3.94S78,19.84,78,17.33V9.21c0-2.51,1.25-3.93,3.66-3.93s3.66,1.42,3.66,3.93v1.51H83V9.05c0-1.12-.49-1.54-1.27-1.54s-1.28.42-1.28,1.54v8.44c0,1.12.5,1.52,1.28,1.52S83,18.61,83,17.49V15.26Z"/><path class="cls-1" d="M46.06,7.05V18.73a2.94,2.94,0,0,1-2.94,2.94H15.55a2.94,2.94,0,0,1-2.94-2.94V7.05a2,2,0,0,1,2-2h0A15.32,15.32,0,0,1,29.33,16.09,15.34,15.34,0,0,1,44.05,5a2,2,0,0,1,2,2Z"/></svg>