<svg id="Layer_1" data-name="Layer 1" xmlns="http://www.w3.org/2000/svg" viewBox="0 0 54.58 54.58"><defs><style>.cls-1{fill:#c5a15a;}.cls-2{fill:#2b2b2b;}</style></defs><path class="cls-1" d="M40.51,22.31v9.23a2.31,2.31,0,0,1-2.32,2.32H16.39a2.32,2.32,0,0,1-2.32-2.32V22.31a1.59,1.59,0,0,1,.46-1.13,1.65,1.65,0,0,1,1.13-.46,12.1,12.1,0,0,1,11.63,8.74,12.11,12.11,0,0,1,11.64-8.74,1.61,1.61,0,0,1,1.12.46A1.63,1.63,0,0,1,40.51,22.31Z"/><path class="cls-2" d="M27.29,6.83A20.47,20.47,0,1,1,6.82,27.29,20.47,20.47,0,0,1,27.29,6.83ZM40.51,31.54V22.31a1.63,1.63,0,0,0-.46-1.13,1.61,1.61,0,0,0-1.12-.46,12.11,12.11,0,0,0-11.64,8.74,12.1,12.1,0,0,0-11.63-8.74,1.65,1.65,0,0,0-1.13.46,1.59,1.59,0,0,0-.46,1.13v9.23a2.32,2.32,0,0,0,2.32,2.32h21.8A2.31,2.31,0,0,0,40.51,31.54Z"/></svg>