<svg id="Layer_1" data-name="Layer 1" xmlns="http://www.w3.org/2000/svg" viewBox="0 0 96.89 22.18"><defs><style>.cls-1{fill:#2b2b2b;}.cls-2{fill:#c5a15a;}</style></defs><path class="cls-1" d="M58.43,13v2.07c0,2.51-1.25,3.93-3.66,3.93s-3.66-1.42-3.66-3.93V7C51.11,4.44,52.36,3,54.77,3S58.43,4.44,58.43,7V8.46H56.11V6.79c0-1.12-.49-1.54-1.27-1.54s-1.27.42-1.27,1.54v8.44c0,1.12.49,1.52,1.27,1.52s1.27-.4,1.27-1.52V13Z"/><path class="cls-1" d="M59.93,3.19h3.88c2.46,0,3.67,1.37,3.67,3.87V15c0,2.5-1.21,3.87-3.67,3.87H59.93Zm2.45,2.24V16.59h1.39c.78,0,1.25-.4,1.25-1.52V7c0-1.12-.47-1.52-1.25-1.52Z"/><path class="cls-1" d="M76.16,13v2.07c0,2.51-1.25,3.93-3.66,3.93s-3.66-1.42-3.66-3.93V7C68.84,4.44,70.09,3,72.5,3S76.16,4.44,76.16,7V8.46H73.84V6.79c0-1.12-.49-1.54-1.27-1.54s-1.28.42-1.28,1.54v8.44c0,1.12.49,1.52,1.28,1.52s1.27-.4,1.27-1.52V13Z"/><path class="cls-1" d="M84.78,13v2.07c0,2.51-1.25,3.93-3.66,3.93s-3.66-1.42-3.66-3.93V7C77.46,4.44,78.71,3,81.12,3S84.78,4.44,84.78,7V8.46H82.46V6.79c0-1.12-.49-1.54-1.28-1.54s-1.27.42-1.27,1.54v8.44c0,1.12.49,1.52,1.27,1.52s1.28-.4,1.28-1.52V13Z"/><path class="cls-2" d="M45.57,4.79V16.47a2.94,2.94,0,0,1-3,2.93H15.06a2.94,2.94,0,0,1-3-2.93V4.79a2,2,0,0,1,.59-1.43,2,2,0,0,1,1.43-.59A15.31,15.31,0,0,1,28.84,13.83,15.31,15.31,0,0,1,43.55,2.77a2,2,0,0,1,2,2Z"/></svg>