<svg id="Layer_1" data-name="Layer 1" xmlns="http://www.w3.org/2000/svg" viewBox="0 0 79.76 54.78"><defs><style>.cls-1{fill:#c5a15a;stroke:#c5a15a;}.cls-1,.cls-2{stroke-linejoin:bevel;stroke-width:0.89px;}.cls-2{fill:#2b2b2b;stroke:#2b2b2b;}</style></defs><path class="cls-1" d="M17.8,34h0A8.45,8.45,0,0,0,9.68,40.1,8.47,8.47,0,0,0,1.55,34,1.11,1.11,0,0,0,.44,35.09v6.45a1.63,1.63,0,0,0,1.63,1.62H17.28a1.63,1.63,0,0,0,1.63-1.62V35.09A1.11,1.11,0,0,0,17.8,34Z"/><path class="cls-2" d="M37.93,45.16a8.46,8.46,0,0,0-8.12,6.12,8.45,8.45,0,0,0-8.12-6.12,1.11,1.11,0,0,0-1.11,1.11v6.44a1.63,1.63,0,0,0,1.63,1.63H37.42A1.62,1.62,0,0,0,39,52.71V46.27A1.11,1.11,0,0,0,37.93,45.16Z"/><path class="cls-1" d="M58.07,34A8.45,8.45,0,0,0,50,40.1,8.45,8.45,0,0,0,41.83,34a1.11,1.11,0,0,0-1.11,1.11v6.45a1.63,1.63,0,0,0,1.62,1.62H57.56a1.63,1.63,0,0,0,1.62-1.62V35.09A1.11,1.11,0,0,0,58.07,34Z"/><path class="cls-2" d="M78.21,45.16a8.45,8.45,0,0,0-8.12,6.12A8.46,8.46,0,0,0,62,45.16a1.11,1.11,0,0,0-1.11,1.11v6.44a1.62,1.62,0,0,0,1.62,1.63H77.69a1.63,1.63,0,0,0,1.63-1.63V46.27A1.11,1.11,0,0,0,78.21,45.16Z"/><path class="cls-1" d="M17.8,11.62h0a8.45,8.45,0,0,0-8.12,6.12,8.47,8.47,0,0,0-8.13-6.12A1.11,1.11,0,0,0,.44,12.73v6.45A1.62,1.62,0,0,0,2.07,20.8H17.28a1.62,1.62,0,0,0,1.63-1.62V12.73A1.11,1.11,0,0,0,17.8,11.62Z"/><path class="cls-2" d="M37.93,22.8a8.46,8.46,0,0,0-8.12,6.12,8.45,8.45,0,0,0-8.12-6.12,1.11,1.11,0,0,0-1.11,1.11v6.45A1.63,1.63,0,0,0,22.21,32H37.42A1.62,1.62,0,0,0,39,30.36V23.91A1.11,1.11,0,0,0,37.93,22.8Z"/><path class="cls-1" d="M58.07,11.62A8.45,8.45,0,0,0,50,17.74a8.45,8.45,0,0,0-8.12-6.12,1.11,1.11,0,0,0-1.11,1.11v6.45a1.62,1.62,0,0,0,1.62,1.62H57.56a1.62,1.62,0,0,0,1.62-1.62V12.73A1.11,1.11,0,0,0,58.07,11.62Z"/><path class="cls-2" d="M37.93.44a8.46,8.46,0,0,0-8.12,6.12A8.45,8.45,0,0,0,21.69.44a1.11,1.11,0,0,0-1.11,1.11V8a1.62,1.62,0,0,0,1.63,1.62H37.42A1.61,1.61,0,0,0,39,8V1.55A1.11,1.11,0,0,0,37.93.44Z"/><path class="cls-2" d="M78.21.44a8.45,8.45,0,0,0-8.12,6.12A8.46,8.46,0,0,0,62,.44a1.11,1.11,0,0,0-1.11,1.11V8a1.61,1.61,0,0,0,1.62,1.62H77.69A1.62,1.62,0,0,0,79.32,8V1.55A1.11,1.11,0,0,0,78.21.44Z"/><path class="cls-2" d="M78.21,22.8a8.45,8.45,0,0,0-8.12,6.12A8.46,8.46,0,0,0,62,22.8a1.11,1.11,0,0,0-1.11,1.11v6.45A1.62,1.62,0,0,0,62.48,32H77.69a1.63,1.63,0,0,0,1.63-1.62V23.91A1.11,1.11,0,0,0,78.21,22.8Z"/></svg>