<svg id="Layer_1" data-name="Layer 1" xmlns="http://www.w3.org/2000/svg" viewBox="0 0 68.81 45.76"><defs><style>.cls-1{fill:#2b2b2b;}.cls-2{fill:#c5a15a;}</style></defs><path class="cls-1" d="M9.52,0H.78A.78.78,0,0,0,0,.78V9.52a1,1,0,0,0,1,1A9.51,9.51,0,0,0,10.49,1,1,1,0,0,0,9.52,0Z"/><path class="cls-2" d="M12.64,0a1,1,0,0,0-1,1V9.71a.78.78,0,0,0,.78.78h8.74a1,1,0,0,0,1-1A9.52,9.52,0,0,0,12.64,0Z"/><path class="cls-2" d="M9.52,11.89A9.51,9.51,0,0,0,0,21.4a1,1,0,0,0,1,1H9.71a.78.78,0,0,0,.78-.78V12.86A1,1,0,0,0,9.52,11.89Z"/><path class="cls-2" d="M21.18,11.89a9.51,9.51,0,0,0-9.52,9.51,1,1,0,0,0,1,1h8.74a.78.78,0,0,0,.78-.78V12.86A1,1,0,0,0,21.18,11.89Z"/><path class="cls-2" d="M33,0H24.3a1,1,0,0,0-1,1,9.51,9.51,0,0,0,9.51,9.51,1,1,0,0,0,1-1V.78A.78.78,0,0,0,33,0Z"/><path class="cls-1" d="M36,0a1,1,0,0,0-1,1V9.71a.78.78,0,0,0,.78.78h8.74a1,1,0,0,0,1-1A9.52,9.52,0,0,0,36,0Z"/><path class="cls-2" d="M24.3,11.89a1,1,0,0,0-1,1V21.6a.77.77,0,0,0,.78.78h8.73a1,1,0,0,0,1-1A9.51,9.51,0,0,0,24.3,11.89Z"/><path class="cls-2" d="M44.51,11.89h0A9.51,9.51,0,0,0,35,21.4a1,1,0,0,0,1,1H44.7a.78.78,0,0,0,.78-.78V12.86A1,1,0,0,0,44.51,11.89Z"/><path class="cls-2" d="M9.52,23.38H.78a.78.78,0,0,0-.78.78V32.9a1,1,0,0,0,1,1,9.51,9.51,0,0,0,9.52-9.51A1,1,0,0,0,9.52,23.38Z"/><path class="cls-1" d="M21.38,23.38H12.64a1,1,0,0,0-1,1,9.51,9.51,0,0,0,9.52,9.51,1,1,0,0,0,1-1V24.16A.78.78,0,0,0,21.38,23.38Z"/><path class="cls-2" d="M9.52,35.27A9.51,9.51,0,0,0,0,44.78a1,1,0,0,0,1,1H9.71a.78.78,0,0,0,.78-.78V36.24A1,1,0,0,0,9.52,35.27Z"/><path class="cls-2" d="M21.38,35.27H12.64a1,1,0,0,0-1,1,9.52,9.52,0,0,0,9.52,9.52,1,1,0,0,0,1-1V36.05A.78.78,0,0,0,21.38,35.27Z"/><path class="cls-1" d="M24.3,23.38a1,1,0,0,0-1,1v8.73a.77.77,0,0,0,.78.78h8.73a1,1,0,0,0,1-1h0A9.52,9.52,0,0,0,24.3,23.38Z"/><path class="cls-2" d="M44.7,23.38H36a1,1,0,0,0-1,1,9.51,9.51,0,0,0,9.52,9.51h0a1,1,0,0,0,1-1V24.16A.78.78,0,0,0,44.7,23.38Z"/><path class="cls-2" d="M24.3,35.27a1,1,0,0,0-1,1V45a.77.77,0,0,0,.78.78h8.73a1,1,0,0,0,1-1A9.51,9.51,0,0,0,24.3,35.27Z"/><path class="cls-2" d="M44.51,35.27h0A9.51,9.51,0,0,0,35,44.78a1,1,0,0,0,1,1H44.7a.78.78,0,0,0,.78-.78V36.24A1,1,0,0,0,44.51,35.27Z"/><path class="cls-2" d="M56.17,0a9.52,9.52,0,0,0-9.52,9.52,1,1,0,0,0,1,1h8.73a.78.78,0,0,0,.78-.78V1A1,1,0,0,0,56.17,0Z"/><path class="cls-2" d="M59.09,10.49h8.74a1,1,0,0,0,1-1A9.52,9.52,0,0,0,59.29,0a1,1,0,0,0-1,1V9.71A.78.78,0,0,0,59.09,10.49Z"/><path class="cls-2" d="M56.17,11.89a9.51,9.51,0,0,0-9.52,9.51,1,1,0,0,0,1,1h8.73a.78.78,0,0,0,.78-.78V12.86A1,1,0,0,0,56.17,11.89Z"/><path class="cls-1" d="M67.83,11.89a9.52,9.52,0,0,0-9.52,9.51,1,1,0,0,0,1,1H68a.78.78,0,0,0,.78-.78V12.86A1,1,0,0,0,67.83,11.89Z"/><path class="cls-2" d="M56.36,23.38H47.63a1,1,0,0,0-1,1,9.51,9.51,0,0,0,9.52,9.51,1,1,0,0,0,1-1V24.16A.78.78,0,0,0,56.36,23.38Z"/><path class="cls-2" d="M67.83,23.38H59.09a.78.78,0,0,0-.78.78V32.9a1,1,0,0,0,1,1,9.51,9.51,0,0,0,9.52-9.51A1,1,0,0,0,67.83,23.38Z"/><path class="cls-1" d="M56.36,35.27H47.63a1,1,0,0,0-1,1,9.52,9.52,0,0,0,9.52,9.52,1,1,0,0,0,1-1V36.05A.78.78,0,0,0,56.36,35.27Z"/><path class="cls-2" d="M67.83,35.27a9.52,9.52,0,0,0-9.52,9.51,1,1,0,0,0,1,1H68a.78.78,0,0,0,.78-.78V36.24A1,1,0,0,0,67.83,35.27Z"/></svg>