<svg id="Layer_1" data-name="Layer 1" xmlns="http://www.w3.org/2000/svg" viewBox="0 0 97.52 62.55"><defs><style>.cls-1,.cls-3{fill:none;}.cls-1,.cls-4{stroke:#c5a15a;}.cls-1,.cls-2,.cls-3,.cls-4{stroke-linejoin:bevel;stroke-width:0.89px;}.cls-2{fill:#2b2b2b;}.cls-2,.cls-3{stroke:#2b2b2b;}.cls-4{fill:#c5a15a;}</style></defs><path class="cls-1" d="M17.14,4.73a.82.82,0,0,0-1.16,0L11.43,9.28a.82.82,0,0,0,0,1.16L16,15a.82.82,0,0,0,1.16,0,7.24,7.24,0,0,0,0-10.26Z"/><path class="cls-2" d="M8.28,9.28,3.73,4.73a.82.82,0,0,0-1.16,0A7.24,7.24,0,0,0,2.57,15a.86.86,0,0,0,.58.24A.86.86,0,0,0,3.73,15l4.55-4.55A.82.82,0,0,0,8.28,9.28Z"/><path class="cls-1" d="M15,16l-4.54-4.55a.83.83,0,0,0-1.17,0L4.73,16a.8.8,0,0,0,0,1.16,7.23,7.23,0,0,0,10.25,0A.82.82,0,0,0,15,16Z"/><path class="cls-1" d="M15,2.57a7.23,7.23,0,0,0-10.25,0,.8.8,0,0,0,0,1.16L9.27,8.28a.83.83,0,0,0,1.17,0L15,3.73A.82.82,0,0,0,15,2.57Z"/><path class="cls-1" d="M43.08,4.73a.82.82,0,0,0-1.16,0L37.37,9.28a.82.82,0,0,0,0,1.16L41.92,15a.82.82,0,0,0,1.16,0,7.27,7.27,0,0,0,0-10.26Z"/><path class="cls-3" d="M34.22,9.28,29.67,4.73a.82.82,0,0,0-1.16,0,7.24,7.24,0,0,0,0,10.26.82.82,0,0,0,1.16,0l4.55-4.55A.82.82,0,0,0,34.22,9.28Z"/><path class="cls-1" d="M40.92,16l-4.55-4.55a.82.82,0,0,0-1.16,0L30.67,16a.8.8,0,0,0,0,1.16,7.23,7.23,0,0,0,10.25,0A.82.82,0,0,0,40.92,16Z"/><path class="cls-4" d="M40.92,2.57a7.23,7.23,0,0,0-10.25,0,.8.8,0,0,0,0,1.16l4.54,4.55a.82.82,0,0,0,1.16,0l4.55-4.55A.82.82,0,0,0,40.92,2.57Z"/><path class="cls-4" d="M69,4.73a.82.82,0,0,0-1.16,0L63.31,9.28a.82.82,0,0,0,0,1.16L67.85,15a.88.88,0,0,0,.58.24A.84.84,0,0,0,69,15,7.24,7.24,0,0,0,69,4.73Z"/><path class="cls-3" d="M60.15,9.28,55.61,4.73a.83.83,0,0,0-1.17,0,7.27,7.27,0,0,0,0,10.26.83.83,0,0,0,1.17,0l4.54-4.55A.82.82,0,0,0,60.15,9.28Z"/><path class="cls-1" d="M66.86,16l-4.55-4.55a.82.82,0,0,0-1.16,0L56.6,16a.82.82,0,0,0,0,1.16,7.24,7.24,0,0,0,10.26,0A.82.82,0,0,0,66.86,16Z"/><path class="cls-1" d="M66.86,2.57a7.24,7.24,0,0,0-10.26,0,.82.82,0,0,0,0,1.16l4.55,4.55a.82.82,0,0,0,1.16,0l4.55-4.55A.82.82,0,0,0,66.86,2.57Z"/><path class="cls-1" d="M95,4.73a.82.82,0,0,0-1.16,0L89.24,9.28a.82.82,0,0,0,0,1.16L93.79,15A.82.82,0,0,0,95,15,7.24,7.24,0,0,0,95,4.73Z"/><path class="cls-3" d="M86.09,9.28,81.54,4.73a.82.82,0,0,0-1.16,0,7.27,7.27,0,0,0,0,10.26.82.82,0,0,0,1.16,0l4.55-4.55A.82.82,0,0,0,86.09,9.28Z"/><path class="cls-4" d="M92.79,16l-4.54-4.55a.83.83,0,0,0-1.17,0L82.54,16a.82.82,0,0,0,0,1.16,7.23,7.23,0,0,0,10.25,0A.82.82,0,0,0,92.79,16Z"/><path class="cls-1" d="M92.79,2.57a7.23,7.23,0,0,0-10.25,0,.82.82,0,0,0,0,1.16l4.54,4.55a.83.83,0,0,0,1.17,0l4.54-4.55A.82.82,0,0,0,92.79,2.57Z"/><path class="cls-3" d="M17.14,47.57a.82.82,0,0,0-1.16,0l-4.55,4.54a.83.83,0,0,0,0,1.17L16,57.82a.8.8,0,0,0,1.16,0,7.23,7.23,0,0,0,0-10.25Z"/><path class="cls-1" d="M8.28,52.11,3.73,47.57a.82.82,0,0,0-1.16,0,7.23,7.23,0,0,0,0,10.25.8.8,0,0,0,1.16,0l4.55-4.54A.83.83,0,0,0,8.28,52.11Z"/><path class="cls-1" d="M15,58.82l-4.54-4.55a.83.83,0,0,0-1.17,0L4.73,58.82a.8.8,0,0,0,0,1.16A7.23,7.23,0,0,0,15,60,.82.82,0,0,0,15,58.82Z"/><path class="cls-4" d="M15,45.41a7.23,7.23,0,0,0-10.25,0,.8.8,0,0,0,0,1.16l4.54,4.55a.83.83,0,0,0,1.17,0L15,46.57A.82.82,0,0,0,15,45.41Z"/><path class="cls-3" d="M43.08,47.57a.82.82,0,0,0-1.16,0l-4.55,4.54a.83.83,0,0,0,0,1.17l4.55,4.54a.8.8,0,0,0,1.16,0,7.25,7.25,0,0,0,0-10.25Z"/><path class="cls-4" d="M34.22,52.11l-4.55-4.54a.82.82,0,0,0-1.16,0,7.23,7.23,0,0,0,0,10.25.8.8,0,0,0,1.16,0l4.55-4.54A.83.83,0,0,0,34.22,52.11Z"/><path class="cls-1" d="M40.92,58.82l-4.55-4.55a.82.82,0,0,0-1.16,0l-4.54,4.55a.8.8,0,0,0,0,1.16,7.23,7.23,0,0,0,10.25,0A.82.82,0,0,0,40.92,58.82Z"/><path class="cls-1" d="M40.92,45.41a7.23,7.23,0,0,0-10.25,0,.8.8,0,0,0,0,1.16l4.54,4.55a.82.82,0,0,0,1.16,0l4.55-4.55A.82.82,0,0,0,40.92,45.41Z"/><path class="cls-3" d="M69,47.57a.82.82,0,0,0-1.16,0l-4.54,4.54a.83.83,0,0,0,0,1.17l4.54,4.54a.85.85,0,0,0,.58.25.81.81,0,0,0,.58-.25,7.23,7.23,0,0,0,0-10.25Z"/><path class="cls-1" d="M60.15,52.11l-4.54-4.54a.83.83,0,0,0-1.17,0,7.25,7.25,0,0,0,0,10.25.81.81,0,0,0,1.17,0l4.54-4.54A.83.83,0,0,0,60.15,52.11Z"/><path class="cls-4" d="M66.86,58.82l-4.55-4.55a.82.82,0,0,0-1.16,0L56.6,58.82a.82.82,0,0,0,0,1.16,7.24,7.24,0,0,0,10.26,0A.82.82,0,0,0,66.86,58.82Z"/><path class="cls-1" d="M66.86,45.41a7.24,7.24,0,0,0-10.26,0,.82.82,0,0,0,0,1.16l4.55,4.55a.82.82,0,0,0,1.16,0l4.55-4.55A.82.82,0,0,0,66.86,45.41Z"/><path class="cls-2" d="M95,47.57a.82.82,0,0,0-1.16,0l-4.55,4.54a.83.83,0,0,0,0,1.17l4.55,4.54a.8.8,0,0,0,1.16,0,7.23,7.23,0,0,0,0-10.25Z"/><path class="cls-1" d="M86.09,52.11l-4.55-4.54a.82.82,0,0,0-1.16,0,7.25,7.25,0,0,0,0,10.25.8.8,0,0,0,1.16,0l4.55-4.54A.83.83,0,0,0,86.09,52.11Z"/><path class="cls-1" d="M92.79,58.82l-4.54-4.55a.83.83,0,0,0-1.17,0l-4.54,4.55a.82.82,0,0,0,0,1.16,7.23,7.23,0,0,0,10.25,0A.82.82,0,0,0,92.79,58.82Z"/><path class="cls-1" d="M92.79,45.41a7.23,7.23,0,0,0-10.25,0,.82.82,0,0,0,0,1.16l4.54,4.55a.83.83,0,0,0,1.17,0l4.54-4.55A.82.82,0,0,0,92.79,45.41Z"/><path class="cls-1" d="M30.11,26.15a.82.82,0,0,0-1.16,0L24.4,30.7a.82.82,0,0,0,0,1.16L29,36.4a.8.8,0,0,0,1.16,0,7.25,7.25,0,0,0,0-10.25Z"/><path class="cls-1" d="M21.25,30.7,16.7,26.15a.82.82,0,0,0-1.16,0,7.23,7.23,0,0,0,0,10.25.8.8,0,0,0,1.16,0l4.55-4.54A.82.82,0,0,0,21.25,30.7Z"/><path class="cls-4" d="M28,37.4l-4.54-4.55a.83.83,0,0,0-1.17,0L17.7,37.4a.8.8,0,0,0,0,1.16,7.23,7.23,0,0,0,10.25,0A.82.82,0,0,0,28,37.4Z"/><path class="cls-3" d="M28,24A7.23,7.23,0,0,0,17.7,24a.8.8,0,0,0,0,1.16l4.54,4.55a.83.83,0,0,0,1.17,0L28,25.15A.82.82,0,0,0,28,24Z"/><path class="cls-1" d="M56.05,26.15a.82.82,0,0,0-1.16,0L50.34,30.7a.82.82,0,0,0,0,1.16l4.55,4.54a.81.81,0,0,0,.58.25.83.83,0,0,0,.58-.25,7.25,7.25,0,0,0,0-10.25Z"/><path class="cls-4" d="M47.19,30.7l-4.55-4.55a.82.82,0,0,0-1.16,0,7.23,7.23,0,0,0,0,10.25.83.83,0,0,0,.58.25.85.85,0,0,0,.58-.25l4.55-4.54A.82.82,0,0,0,47.19,30.7Z"/><path class="cls-1" d="M53.89,37.4l-4.55-4.55a.82.82,0,0,0-1.16,0L43.63,37.4a.82.82,0,0,0,0,1.16,7.24,7.24,0,0,0,10.26,0A.82.82,0,0,0,53.89,37.4Z"/><path class="cls-3" d="M53.89,24a7.24,7.24,0,0,0-10.26,0,.82.82,0,0,0,0,1.16l4.55,4.55a.82.82,0,0,0,1.16,0l4.55-4.55A.82.82,0,0,0,53.89,24Z"/><path class="cls-1" d="M82,26.15a.82.82,0,0,0-1.16,0L76.27,30.7a.82.82,0,0,0,0,1.16l4.55,4.54a.8.8,0,0,0,1.16,0,7.23,7.23,0,0,0,0-10.25Z"/><path class="cls-1" d="M73.12,30.7l-4.55-4.55a.82.82,0,0,0-1.16,0,7.25,7.25,0,0,0,0,10.25.8.8,0,0,0,1.16,0l4.55-4.54A.82.82,0,0,0,73.12,30.7Z"/><path class="cls-1" d="M79.83,37.4l-4.55-4.55a.82.82,0,0,0-1.16,0L69.57,37.4a.82.82,0,0,0,0,1.16,7.24,7.24,0,0,0,10.26,0A.82.82,0,0,0,79.83,37.4Z"/><path class="cls-2" d="M79.83,24a7.24,7.24,0,0,0-10.26,0,.82.82,0,0,0,0,1.16l4.55,4.55a.82.82,0,0,0,1.16,0l4.55-4.55A.82.82,0,0,0,79.83,24Z"/></svg>