<svg id="Layer_1" data-name="Layer 1" xmlns="http://www.w3.org/2000/svg" viewBox="0 0 47.88 73.17"><defs><style>.cls-1{fill:#2b2b2b;}.cls-2{fill:#c5a15a;}</style></defs><path class="cls-1" d="M8.82,53.13v.17a.81.81,0,0,1-.21.58.8.8,0,0,1-1.37-.58V51.54A.82.82,0,0,1,8.61,51a.81.81,0,0,1,.21.58v.17H8.25v-.17a.23.23,0,0,0-.06-.16.28.28,0,0,0-.32,0,.28.28,0,0,0,0,.16V53.3a.25.25,0,0,0,0,.16.22.22,0,0,0,.38-.16v-.17Z"/><path class="cls-1" d="M10,54.1a.74.74,0,0,1-.79-.8V51.54a.79.79,0,1,1,1.58,0V53.3a.74.74,0,0,1-.79.8Zm0-.58a.21.21,0,0,0,.16-.06.25.25,0,0,0,.05-.16V51.54a.28.28,0,0,0-.05-.16.28.28,0,0,0-.32,0,.23.23,0,0,0-.06.16V53.3a.21.21,0,0,0,.22.22Z"/><path class="cls-1" d="M11.4,54V50.82h.43l.73,2.08h-.15V50.82h.53V54h-.43L11.78,52h.15V54Z"/><path class="cls-1" d="M13.77,54V51.39H13.3v-.57h1.52v.57h-.47V54Z"/><path class="cls-1" d="M16.5,50.82v.57h-.75V52h.64v.58h-.64v.83h.75V54H15.17V50.82Z"/><path class="cls-1" d="M17,54V50.82h.43l.73,2.08H18V50.82h.53V54h-.42L17.38,52h.16V54Z"/><path class="cls-1" d="M19.37,54V51.39H18.9v-.57h1.52v.57H20V54Z"/><path class="cls-1" d="M21.8,54V50.82h.8a.73.73,0,0,1,.79.79v1.63a.8.8,0,0,1-.21.57.78.78,0,0,1-.58.22Zm.58-.58h.22a.21.21,0,0,0,.16-.06.25.25,0,0,0,0-.15V51.61a.25.25,0,0,0,0-.16.21.21,0,0,0-.16-.06h-.22Z"/><path class="cls-1" d="M25.28,50.82v.57h-.75V52h.63v.58h-.63v.83h.75V54H24V50.82Z"/><path class="cls-1" d="M26.14,54l-.61-3.21h.59l.37,2.39h-.08l.36-2.39h.59L26.76,54Z"/><path class="cls-1" d="M29.06,50.82v.57h-.74V52H29v.58h-.63v.83h.74V54H27.74V50.82Z"/><path class="cls-1" d="M30.14,50.82v2.63h.67V54H29.57V50.82Z"/><path class="cls-1" d="M31.93,54.1a.74.74,0,0,1-.79-.8V51.54a.73.73,0,0,1,.79-.79.79.79,0,0,1,.58.21.81.81,0,0,1,.21.58V53.3a.81.81,0,0,1-.21.58A.8.8,0,0,1,31.93,54.1Zm0-.58a.21.21,0,0,0,.16-.06.21.21,0,0,0,0-.16V51.54a.22.22,0,0,0,0-.16.28.28,0,0,0-.32,0,.28.28,0,0,0-.05.16V53.3a.25.25,0,0,0,.05.16A.21.21,0,0,0,31.93,53.52Z"/><path class="cls-1" d="M33.3,54V50.82h.79a.78.78,0,0,1,.58.21.82.82,0,0,1,.22.58V52a.79.79,0,0,1-.22.57.75.75,0,0,1-.58.22h-.21V54Zm.58-1.78h.21a.21.21,0,0,0,.16-.06.2.2,0,0,0,.06-.15v-.43a.21.21,0,0,0-.22-.22h-.21Z"/><path class="cls-1" d="M36.64,50.82v.57h-.75V52h.64v.58h-.64v.83h.75V54H35.31V50.82Z"/><path class="cls-1" d="M37.14,54V50.82h.8a.74.74,0,0,1,.79.79v.51a.84.84,0,0,1-.09.4.7.7,0,0,1-.26.28l0-.18a.59.59,0,0,1,.29.19.55.55,0,0,1,.1.32V54h-.58v-.9a.21.21,0,0,0-.06-.16.18.18,0,0,0-.15-.06h-.22V54Zm.58-1.69h.22a.18.18,0,0,0,.15-.06.21.21,0,0,0,.06-.16v-.51a.21.21,0,0,0-.06-.16.18.18,0,0,0-.15-.06h-.22Z"/><path class="cls-1" d="M40,54.1a.76.76,0,0,1-.79-.8v-.17h.58v.17a.25.25,0,0,0,0,.16.22.22,0,0,0,.38-.16V53s0-.06,0-.08a.08.08,0,0,0,0,0,.09.09,0,0,0-.06,0l-.13,0-.46-.15a.61.61,0,0,1-.23-.14.31.31,0,0,1-.09-.19,2.73,2.73,0,0,1,0-.31v-.43a.74.74,0,0,1,.79-.79.79.79,0,0,1,.58.21.82.82,0,0,1,.22.58v.17h-.58v-.17a.23.23,0,0,0-.06-.16.28.28,0,0,0-.32,0,.28.28,0,0,0,0,.16v.52a.13.13,0,0,0,0,0l.06,0,.12,0a3.86,3.86,0,0,1,.46.16.66.66,0,0,1,.24.13.37.37,0,0,1,.08.19,2.41,2.41,0,0,1,0,.31v.33a.82.82,0,0,1-.22.58A.8.8,0,0,1,40,54.1Z"/><path class="cls-1" d="M8.32,58.37a.75.75,0,0,1-.57-.22.79.79,0,0,1-.21-.57v-.17a.89.89,0,0,1,.1-.44.78.78,0,0,1,.29-.28L7.54,56v-.17A.74.74,0,0,1,8.33,55a.76.76,0,0,1,.58.22.77.77,0,0,1,.21.57V56H8.54v-.17a.2.2,0,0,0,0-.15.24.24,0,0,0-.32,0,.2.2,0,0,0-.05.15V56l.51.92.09-.66h.49L9,57.62l.31.55v.13H8.81l-.05-.09a.76.76,0,0,1-.19.12A.66.66,0,0,1,8.32,58.37Zm0-.58a.18.18,0,0,0,.16-.07l-.28-.5a.2.2,0,0,0-.09.19v.17a.2.2,0,0,0,.05.15A.21.21,0,0,0,8.33,57.79Z"/><path class="cls-1" d="M12.38,57.41v.17a.75.75,0,0,1-.22.57.74.74,0,0,1-.57.22.76.76,0,0,1-.8-.79V55.81a.74.74,0,0,1,.22-.57.75.75,0,0,1,.58-.22.75.75,0,0,1,.79.79V56H11.8v-.17a.2.2,0,0,0-.06-.15.19.19,0,0,0-.15-.06.2.2,0,0,0-.16.06.2.2,0,0,0-.06.15v1.77a.2.2,0,0,0,.06.15.2.2,0,0,0,.16.06.19.19,0,0,0,.15-.06.2.2,0,0,0,.06-.15v-.17Z"/><path class="cls-1" d="M12.84,58.3V55.09h.79a.74.74,0,0,1,.79.79v.51a.88.88,0,0,1-.09.41.77.77,0,0,1-.26.28l0-.19a.61.61,0,0,1,.29.19.51.51,0,0,1,.1.32v.9h-.58v-.9a.25.25,0,0,0-.05-.15.21.21,0,0,0-.16-.06h-.22V58.3Zm.57-1.69h.22a.21.21,0,0,0,.16-.06.25.25,0,0,0,.05-.16v-.51a.23.23,0,0,0-.05-.15.21.21,0,0,0-.16-.06h-.22Z"/><path class="cls-1" d="M16.32,55.09v.58h-.75v.64h.64v.58h-.64v.83h.75v.58H15V55.09Z"/><path class="cls-1" d="M16.58,58.3l.6-3.21h.63l.6,3.21h-.6l-.07-.5h-.5l-.07.5Zm.75-1.08h.33l-.2-1.35h.08Z"/><path class="cls-1" d="M18.9,58.3V55.67h-.47v-.58H20v.58h-.47V58.3Z"/><path class="cls-1" d="M21.05,58.37a.76.76,0,0,1-.58-.22.79.79,0,0,1-.21-.57V55.81a.77.77,0,0,1,.21-.57.76.76,0,0,1,.58-.22.74.74,0,0,1,.79.79v1.77a.79.79,0,0,1-.21.57A.78.78,0,0,1,21.05,58.37Zm0-.58a.21.21,0,0,0,.16-.06.25.25,0,0,0,.05-.15V55.81a.25.25,0,0,0-.05-.15.24.24,0,0,0-.32,0,.2.2,0,0,0-.06.15v1.77a.2.2,0,0,0,.06.15A.21.21,0,0,0,21.05,57.79Z"/><path class="cls-1" d="M22.42,58.3V55.09h.79a.76.76,0,0,1,.58.22.77.77,0,0,1,.21.57v.51a.88.88,0,0,1-.09.41.83.83,0,0,1-.25.28l-.05-.19a.61.61,0,0,1,.29.19.51.51,0,0,1,.1.32v.9h-.57v-.9a.2.2,0,0,0-.06-.15.21.21,0,0,0-.16-.06H23V58.3ZM23,56.61h.21a.21.21,0,0,0,.22-.22v-.51a.19.19,0,0,0-.06-.15.21.21,0,0,0-.16-.06H23Z"/><path class="cls-1" d="M25.27,58.37a.76.76,0,0,1-.58-.22.79.79,0,0,1-.22-.57v-.17h.58v.17a.2.2,0,0,0,.06.15.24.24,0,0,0,.32,0,.25.25,0,0,0,.05-.15v-.42s0,0,0,0a.15.15,0,0,0-.06,0l-.12,0-.46-.15a.66.66,0,0,1-.24-.14.33.33,0,0,1-.08-.19,2.28,2.28,0,0,1,0-.31v-.43a.78.78,0,0,1,.22-.57.76.76,0,0,1,.58-.22.74.74,0,0,1,.79.79V56h-.58v-.17a.25.25,0,0,0-.05-.15.24.24,0,0,0-.32,0,.2.2,0,0,0-.06.15v.43a.22.22,0,0,0,0,.09.08.08,0,0,0,0,.05l.06,0a.33.33,0,0,0,.13,0l.46.16a.78.78,0,0,1,.23.13.34.34,0,0,1,.09.19,2.92,2.92,0,0,1,0,.32v.33a.79.79,0,0,1-.21.57A.78.78,0,0,1,25.27,58.37Z"/><path class="cls-1" d="M29.14,57.41v.17a.79.79,0,0,1-.22.57.75.75,0,0,1-.58.22.74.74,0,0,1-.57-.22.75.75,0,0,1-.22-.57V55.81a.75.75,0,0,1,.79-.79.75.75,0,0,1,.58.22.78.78,0,0,1,.22.57V56h-.58v-.17a.2.2,0,0,0-.06-.15.24.24,0,0,0-.32,0,.25.25,0,0,0-.05.15v1.77a.25.25,0,0,0,.05.15.24.24,0,0,0,.32,0,.2.2,0,0,0,.06-.15v-.17Z"/><path class="cls-1" d="M30.34,58.37a.78.78,0,0,1-.58-.22.79.79,0,0,1-.21-.57V55.81a.79.79,0,1,1,1.58,0v1.77a.79.79,0,0,1-.21.57A.78.78,0,0,1,30.34,58.37Zm0-.58a.21.21,0,0,0,.16-.06.25.25,0,0,0,.05-.15V55.81a.25.25,0,0,0-.05-.15.24.24,0,0,0-.32,0,.2.2,0,0,0-.05.15v1.77a.2.2,0,0,0,.05.15A.21.21,0,0,0,30.34,57.79Z"/><path class="cls-1" d="M33.27,55.09v2.49a.79.79,0,0,1-.21.57.76.76,0,0,1-.58.22.78.78,0,0,1-.58-.22.79.79,0,0,1-.21-.57V55.09h.58v2.49a.25.25,0,0,0,0,.15.24.24,0,0,0,.32,0,.2.2,0,0,0,.06-.15V55.09Z"/><path class="cls-1" d="M33.88,58.3V55.09h.43L35,57.17h-.16V55.09h.54V58.3H35l-.73-2.08h.15V58.3Z"/><path class="cls-1" d="M37.58,57.41v.17a.79.79,0,0,1-.21.57.76.76,0,0,1-.58.22.78.78,0,0,1-.58-.22.79.79,0,0,1-.21-.57V55.81a.74.74,0,0,1,.79-.79.76.76,0,0,1,.58.22.77.77,0,0,1,.21.57V56H37v-.17a.2.2,0,0,0,0-.15.24.24,0,0,0-.32,0,.2.2,0,0,0-.05.15v1.77a.2.2,0,0,0,.05.15.24.24,0,0,0,.32,0,.2.2,0,0,0,0-.15v-.17Z"/><path class="cls-1" d="M38.62,58.3H38V55.09h.58Z"/><path class="cls-1" d="M39.82,55.09v2.63h.67v.58H39.25V55.09Z"/><path class="cls-1" d="M6,64V62.13h.46a.36.36,0,0,1,.29.11.41.41,0,0,1,.11.31v.15a.45.45,0,0,1,0,.2.44.44,0,0,1-.12.15V63a.38.38,0,0,1,.14.14.51.51,0,0,1,0,.22v.21a.41.41,0,0,1-.11.3.37.37,0,0,1-.29.12Zm.19-1h.27a.21.21,0,0,0,.16-.06.25.25,0,0,0,.06-.17v-.15a.24.24,0,0,0-.06-.17.19.19,0,0,0-.16-.07H6.17Zm0,.87h.3a.21.21,0,0,0,.15-.07.24.24,0,0,0,.06-.17v-.21a.25.25,0,0,0-.06-.17.2.2,0,0,0-.15-.06h-.3Z"/><path class="cls-1" d="M8.65,64a.41.41,0,0,1-.32-.13.45.45,0,0,1-.12-.33v-1a.48.48,0,0,1,.12-.33.49.49,0,0,1,.64,0,.48.48,0,0,1,.12.33v1a.45.45,0,0,1-.12.33A.41.41,0,0,1,8.65,64Zm0-.18a.22.22,0,0,0,.18-.08.27.27,0,0,0,.07-.2v-1a.25.25,0,0,0-.07-.19.22.22,0,0,0-.18-.08.26.26,0,0,0-.19.08.29.29,0,0,0-.07.19v1a.32.32,0,0,0,.07.2A.26.26,0,0,0,8.65,63.84Z"/><path class="cls-1" d="M10.9,64a.39.39,0,0,1-.32-.13.45.45,0,0,1-.12-.33v-1a.48.48,0,0,1,.12-.33.42.42,0,0,1,.32-.12.44.44,0,0,1,.32.12.48.48,0,0,1,.12.33v1a.45.45,0,0,1-.12.33A.41.41,0,0,1,10.9,64Zm0-.18a.25.25,0,0,0,.18-.08.27.27,0,0,0,.07-.2v-1a.26.26,0,0,0-.25-.27.26.26,0,0,0-.19.08.29.29,0,0,0-.07.19v1a.32.32,0,0,0,.07.2A.26.26,0,0,0,10.9,63.84Z"/><path class="cls-1" d="M12.73,64V62.13h.19V64Zm.74,0L13,63l-.13.18v-.3l.53-.76h.21l-.49.7L13.67,64Z"/><path class="cls-1" d="M15.3,64a.41.41,0,0,1-.32-.13.45.45,0,0,1-.12-.33V63.5h.19v.06a.27.27,0,0,0,.07.2.23.23,0,0,0,.18.08.26.26,0,0,0,.19-.08.32.32,0,0,0,.06-.2v-.24a.09.09,0,0,0,0-.07l-.07,0-.15-.06-.25-.09a.37.37,0,0,1-.13-.07.22.22,0,0,1-.05-.11,1,1,0,0,1,0-.19v-.15a.48.48,0,0,1,.12-.33.49.49,0,0,1,.64,0,.48.48,0,0,1,.12.33v.07h-.19v-.07a.29.29,0,0,0-.06-.19.26.26,0,0,0-.19-.08.23.23,0,0,0-.18.08.25.25,0,0,0-.07.19v.26s0,.05,0,.07a.19.19,0,0,0,.08,0l.14.06.26.09a.5.5,0,0,1,.13.07.21.21,0,0,1,0,.11,1,1,0,0,1,0,.18v.14a.45.45,0,0,1-.12.33A.41.41,0,0,1,15.3,64Z"/><path class="cls-1" d="M19,64a.44.44,0,0,1-.32-.12.48.48,0,0,1-.12-.33v-.19a.59.59,0,0,1,.05-.23.34.34,0,0,1,.14-.15l-.19-.33v-.11a.44.44,0,1,1,.88,0v.06h-.19v-.06a.27.27,0,0,0-.07-.2.27.27,0,0,0-.36,0,.27.27,0,0,0-.07.2v.11l.52.87.1-.55h.15l-.14.76.13.21v0h-.17l-.06-.09a.27.27,0,0,1-.12.09A.38.38,0,0,1,19,64Zm0-.18a.24.24,0,0,0,.2-.09l-.35-.59a.26.26,0,0,0-.1.22v.19a.25.25,0,0,0,.07.19A.23.23,0,0,0,19,63.83Z"/><path class="cls-1" d="M22.45,64V62.13h.45a.36.36,0,0,1,.29.11.41.41,0,0,1,.12.31v.2a.41.41,0,0,1-.12.3.37.37,0,0,1-.29.12h-.27V64Zm.18-1h.27a.21.21,0,0,0,.16-.06.25.25,0,0,0,.06-.17v-.2a.24.24,0,0,0-.06-.17.19.19,0,0,0-.16-.07h-.27Z"/><path class="cls-1" d="M25.48,62.13v1.43a.45.45,0,0,1-.12.33.46.46,0,0,1-.64,0,.45.45,0,0,1-.12-.33V62.13h.18v1.43a.32.32,0,0,0,.07.2.26.26,0,0,0,.19.08.25.25,0,0,0,.18-.08.27.27,0,0,0,.07-.2V62.13Z"/><path class="cls-1" d="M26.89,64V62.13h.46a.38.38,0,0,1,.29.11.45.45,0,0,1,.11.31v.15a.46.46,0,0,1-.05.2.29.29,0,0,1-.12.15V63a.32.32,0,0,1,.14.14.51.51,0,0,1,.05.22v.21a.39.39,0,0,1-.4.42Zm.18-1h.28a.2.2,0,0,0,.15-.06.25.25,0,0,0,.06-.17v-.15a.24.24,0,0,0-.06-.17.18.18,0,0,0-.15-.07h-.28Zm0,.87h.3a.22.22,0,0,0,.16-.07.24.24,0,0,0,.06-.17v-.21a.25.25,0,0,0-.06-.17.21.21,0,0,0-.16-.06h-.3Z"/><path class="cls-1" d="M29.33,62.13V63.8h.51V64h-.7V62.13Z"/><path class="cls-1" d="M31.28,64H31.1V62.13h.18Z"/><path class="cls-1" d="M33.07,64a.41.41,0,0,1-.32-.13.45.45,0,0,1-.12-.33V63.5h.19v.06a.27.27,0,0,0,.07.2.23.23,0,0,0,.18.08.26.26,0,0,0,.19-.08.32.32,0,0,0,.06-.2v-.24a.09.09,0,0,0,0-.07l-.07,0-.15-.06-.25-.09a.37.37,0,0,1-.13-.07.22.22,0,0,1,0-.11c0-.05,0-.11,0-.19v-.15a.48.48,0,0,1,.12-.33.49.49,0,0,1,.64,0,.48.48,0,0,1,.12.33v.07h-.19v-.07a.29.29,0,0,0-.06-.19.26.26,0,0,0-.19-.08.23.23,0,0,0-.18.08.25.25,0,0,0-.07.19v.26s0,.05,0,.07l.08,0,.14.06.26.09a.5.5,0,0,1,.13.07.21.21,0,0,1,0,.11,1,1,0,0,1,0,.18v.14a.45.45,0,0,1-.12.33A.41.41,0,0,1,33.07,64Z"/><path class="cls-1" d="M34.86,64V62.13h.19v.94h.47v-.94h.19V64h-.19v-.72h-.47V64Z"/><path class="cls-1" d="M37.32,64h-.19V62.13h.19Z"/><path class="cls-1" d="M38.74,64V62.13h.17l.58,1.51h-.05V62.13h.17V64h-.16l-.58-1.51h.05V64Z"/><path class="cls-1" d="M41.45,64a.41.41,0,0,1-.32-.13.45.45,0,0,1-.12-.33v-1a.48.48,0,0,1,.12-.33.49.49,0,0,1,.64,0,.48.48,0,0,1,.12.33v.07h-.18v-.07a.29.29,0,0,0-.07-.19.26.26,0,0,0-.19-.08.23.23,0,0,0-.18.08.25.25,0,0,0-.07.19v1a.27.27,0,0,0,.07.2.23.23,0,0,0,.18.08.26.26,0,0,0,.19-.08.32.32,0,0,0,.07-.2v-.28h-.25v-.19h.43v.47a.45.45,0,0,1-.12.33A.41.41,0,0,1,41.45,64Z"/><path class="cls-1" d="M14.1,40.32V42.4c0,2.5-1.25,3.93-3.66,3.93S6.77,44.9,6.77,42.4V34.27c0-2.5,1.25-3.93,3.67-3.93s3.66,1.43,3.66,3.93v1.52H11.78V34.11c0-1.12-.5-1.54-1.28-1.54S9.23,33,9.23,34.11v8.44c0,1.12.49,1.52,1.27,1.52s1.28-.4,1.28-1.52V40.32Z"/><path class="cls-1" d="M15.59,30.51h3.89c2.46,0,3.66,1.37,3.66,3.87v7.9c0,2.5-1.2,3.87-3.66,3.87H15.59Zm2.46,2.24V43.91h1.38c.79,0,1.25-.4,1.25-1.51V34.27c0-1.12-.46-1.52-1.25-1.52Z"/><path class="cls-1" d="M31.83,40.32V42.4c0,2.5-1.25,3.93-3.67,3.93S24.5,44.9,24.5,42.4V34.27c0-2.5,1.25-3.93,3.66-3.93s3.67,1.43,3.67,3.93v1.52H29.5V34.11c0-1.12-.49-1.54-1.27-1.54S27,33,27,34.11v8.44c0,1.12.49,1.52,1.27,1.52s1.27-.4,1.27-1.52V40.32Z"/><path class="cls-1" d="M40.45,40.32V42.4c0,2.5-1.26,3.93-3.67,3.93s-3.66-1.43-3.66-3.93V34.27c0-2.5,1.25-3.93,3.66-3.93s3.67,1.43,3.67,3.93v1.52H38.12V34.11c0-1.12-.49-1.54-1.27-1.54s-1.27.42-1.27,1.54v8.44c0,1.12.49,1.52,1.27,1.52s1.27-.4,1.27-1.52V40.32Z"/><path class="cls-2" d="M40.79,11.19V23.06a3,3,0,0,1-3,3h-28a3,3,0,0,1-3-3V11.19a2,2,0,0,1,.6-1.44,2,2,0,0,1,1.45-.6,15.57,15.57,0,0,1,15,11.24,15.57,15.57,0,0,1,15-11.24,2.06,2.06,0,0,1,1.45.6A2,2,0,0,1,40.79,11.19Z"/></svg>